%TF.GenerationSoftware,KiCad,Pcbnew,7.0.8*%
%TF.CreationDate,2023-11-03T07:12:53-06:00*%
%TF.ProjectId,Pinecil_LEDring,50696e65-6369-46c5-9f4c-454472696e67,rev?*%
%TF.SameCoordinates,Original*%
%TF.FileFunction,Soldermask,Top*%
%TF.FilePolarity,Negative*%
%FSLAX46Y46*%
G04 Gerber Fmt 4.6, Leading zero omitted, Abs format (unit mm)*
G04 Created by KiCad (PCBNEW 7.0.8) date 2023-11-03 07:12:53*
%MOMM*%
%LPD*%
G01*
G04 APERTURE LIST*
G04 Aperture macros list*
%AMHorizOval*
0 Thick line with rounded ends*
0 $1 width*
0 $2 $3 position (X,Y) of the first rounded end (center of the circle)*
0 $4 $5 position (X,Y) of the second rounded end (center of the circle)*
0 Add line between two ends*
20,1,$1,$2,$3,$4,$5,0*
0 Add two circle primitives to create the rounded ends*
1,1,$1,$2,$3*
1,1,$1,$4,$5*%
%AMRotRect*
0 Rectangle, with rotation*
0 The origin of the aperture is its center*
0 $1 length*
0 $2 width*
0 $3 Rotation angle, in degrees counterclockwise*
0 Add horizontal line*
21,1,$1,$2,0,0,$3*%
G04 Aperture macros list end*
%ADD10C,0.200000*%
%ADD11R,2.000000X2.000000*%
%ADD12C,2.000000*%
%ADD13C,13.060000*%
%ADD14RotRect,1.200000X0.900000X326.000000*%
%ADD15RotRect,1.400000X1.400000X230.000000*%
%ADD16HorizOval,1.000000X-0.191511X0.160697X0.191511X-0.160697X0*%
G04 APERTURE END LIST*
D10*
G36*
X143972244Y-88818523D02*
G01*
X143979448Y-88820963D01*
X143990496Y-88825203D01*
X144001015Y-88829589D01*
X144011006Y-88834122D01*
X144020470Y-88838800D01*
X144029405Y-88843624D01*
X144040497Y-88850284D01*
X144050650Y-88857203D01*
X144059864Y-88864381D01*
X144068140Y-88871819D01*
X144070062Y-88873719D01*
X144076893Y-88881279D01*
X144083178Y-88890697D01*
X144086959Y-88900079D01*
X144088190Y-88911290D01*
X144085814Y-88922450D01*
X144081079Y-88931711D01*
X144079832Y-88933558D01*
X144074638Y-88942149D01*
X144069314Y-88953144D01*
X144065236Y-88962968D01*
X144061085Y-88974144D01*
X144056862Y-88986672D01*
X144052565Y-89000554D01*
X144049659Y-89010559D01*
X144046722Y-89021165D01*
X144043752Y-89032373D01*
X144040749Y-89044181D01*
X144037714Y-89056591D01*
X144034647Y-89069602D01*
X144031564Y-89082854D01*
X144028480Y-89096049D01*
X144025396Y-89109186D01*
X144022313Y-89122267D01*
X144019229Y-89135290D01*
X144016146Y-89148256D01*
X144013062Y-89161164D01*
X144009979Y-89174016D01*
X144006895Y-89186810D01*
X144003811Y-89199547D01*
X144000728Y-89212226D01*
X143997644Y-89224849D01*
X143994561Y-89237414D01*
X143991477Y-89249922D01*
X143988394Y-89262372D01*
X143985310Y-89274766D01*
X143998601Y-89272930D01*
X144011914Y-89270996D01*
X144025249Y-89268963D01*
X144038605Y-89266832D01*
X144051982Y-89264601D01*
X144065381Y-89262272D01*
X144078801Y-89259844D01*
X144092243Y-89257318D01*
X144105706Y-89254692D01*
X144119190Y-89251968D01*
X144128192Y-89250097D01*
X144131417Y-89238034D01*
X144133764Y-89226024D01*
X144135233Y-89214068D01*
X144135825Y-89202165D01*
X144135538Y-89190315D01*
X144134375Y-89178519D01*
X144132333Y-89166776D01*
X144129413Y-89155087D01*
X144127387Y-89144760D01*
X144129342Y-89134507D01*
X144139198Y-89130490D01*
X144151232Y-89132859D01*
X144160451Y-89136375D01*
X144171167Y-89141463D01*
X144183383Y-89148122D01*
X144187787Y-89150690D01*
X144196425Y-89155947D01*
X144208110Y-89163740D01*
X144218272Y-89171420D01*
X144226909Y-89178990D01*
X144234023Y-89186447D01*
X144241136Y-89196217D01*
X144245540Y-89205788D01*
X144247235Y-89217473D01*
X144244696Y-89228848D01*
X144240990Y-89238148D01*
X144237323Y-89248220D01*
X144233694Y-89259062D01*
X144230102Y-89270675D01*
X144226549Y-89283059D01*
X144223910Y-89292852D01*
X144221292Y-89303080D01*
X144218695Y-89313741D01*
X144216120Y-89324836D01*
X144213407Y-89336347D01*
X144210398Y-89348257D01*
X144207093Y-89360567D01*
X144203491Y-89373276D01*
X144199594Y-89386384D01*
X144195400Y-89399892D01*
X144190910Y-89413798D01*
X144187752Y-89423291D01*
X144184462Y-89432962D01*
X144181041Y-89442810D01*
X144177488Y-89452835D01*
X144173803Y-89463038D01*
X144171912Y-89468206D01*
X144168076Y-89478491D01*
X144164203Y-89488646D01*
X144160291Y-89498672D01*
X144156341Y-89508567D01*
X144152353Y-89518333D01*
X144148327Y-89527969D01*
X144144263Y-89537476D01*
X144140160Y-89546852D01*
X144136019Y-89556099D01*
X144131840Y-89565216D01*
X144127623Y-89574204D01*
X144123368Y-89583061D01*
X144116914Y-89596104D01*
X144110374Y-89608856D01*
X144105966Y-89617194D01*
X144116278Y-89625068D01*
X144126086Y-89632875D01*
X144135390Y-89640616D01*
X144144190Y-89648289D01*
X144152487Y-89655896D01*
X144160280Y-89663436D01*
X144167569Y-89670909D01*
X144174354Y-89678316D01*
X144183588Y-89689300D01*
X144191688Y-89700135D01*
X144198654Y-89710819D01*
X144204487Y-89721352D01*
X144209187Y-89731736D01*
X144210502Y-89735163D01*
X144213882Y-89745428D01*
X144216510Y-89755706D01*
X144218387Y-89765996D01*
X144219512Y-89776299D01*
X144219886Y-89786615D01*
X144219509Y-89796945D01*
X144218381Y-89807286D01*
X144216501Y-89817641D01*
X144213870Y-89828009D01*
X144210488Y-89838389D01*
X144207815Y-89845317D01*
X144203359Y-89854541D01*
X144196802Y-89863192D01*
X144187619Y-89868146D01*
X144177339Y-89866589D01*
X144168325Y-89860654D01*
X144161104Y-89853469D01*
X144153487Y-89843939D01*
X144145476Y-89832065D01*
X144139916Y-89822847D01*
X144134272Y-89813152D01*
X144128639Y-89803609D01*
X144123014Y-89794216D01*
X144117400Y-89784974D01*
X144111794Y-89775882D01*
X144106199Y-89766942D01*
X144100613Y-89758152D01*
X144095036Y-89749513D01*
X144089469Y-89741024D01*
X144083912Y-89732687D01*
X144078364Y-89724500D01*
X144070060Y-89712502D01*
X144061777Y-89700844D01*
X144053516Y-89689524D01*
X144050767Y-89685826D01*
X144038443Y-89696664D01*
X144026263Y-89707072D01*
X144014225Y-89717050D01*
X144002331Y-89726600D01*
X143990579Y-89735720D01*
X143978971Y-89744410D01*
X143967506Y-89752672D01*
X143956184Y-89760504D01*
X143945005Y-89767906D01*
X143933969Y-89774880D01*
X143923077Y-89781424D01*
X143912327Y-89787538D01*
X143901721Y-89793224D01*
X143891257Y-89798480D01*
X143880937Y-89803306D01*
X143870760Y-89807704D01*
X143860739Y-89811762D01*
X143850824Y-89815573D01*
X143841016Y-89819135D01*
X143831315Y-89822450D01*
X143821721Y-89825516D01*
X143812233Y-89828335D01*
X143798203Y-89832097D01*
X143784413Y-89835301D01*
X143770863Y-89837947D01*
X143757554Y-89840035D01*
X143744485Y-89841565D01*
X143731656Y-89842537D01*
X143723237Y-89842875D01*
X143711746Y-89842957D01*
X143699709Y-89842325D01*
X143689944Y-89840344D01*
X143690448Y-89830189D01*
X143700633Y-89823707D01*
X143709560Y-89819183D01*
X143719792Y-89814171D01*
X143730523Y-89808750D01*
X143741751Y-89802922D01*
X143753478Y-89796686D01*
X143765702Y-89790042D01*
X143778425Y-89782990D01*
X143787183Y-89778062D01*
X143796163Y-89772953D01*
X143805364Y-89767663D01*
X143814787Y-89762191D01*
X143824430Y-89756539D01*
X143834295Y-89750704D01*
X143844382Y-89744689D01*
X143854567Y-89738467D01*
X143864666Y-89732076D01*
X143874679Y-89725515D01*
X143884606Y-89718784D01*
X143894447Y-89711883D01*
X143904202Y-89704813D01*
X143913872Y-89697572D01*
X143923456Y-89690162D01*
X143932953Y-89682582D01*
X143942365Y-89674832D01*
X143951691Y-89666912D01*
X143960932Y-89658822D01*
X143970086Y-89650563D01*
X143979154Y-89642134D01*
X143988137Y-89633535D01*
X143997034Y-89624766D01*
X143987021Y-89614788D01*
X143977437Y-89605310D01*
X143968283Y-89596332D01*
X143959558Y-89587855D01*
X143951262Y-89579877D01*
X143943396Y-89572399D01*
X143935959Y-89565420D01*
X143925608Y-89555891D01*
X143916224Y-89547486D01*
X143907805Y-89540206D01*
X143898083Y-89532249D01*
X143890078Y-89526291D01*
X143888346Y-89525115D01*
X143879627Y-89517613D01*
X143873622Y-89508479D01*
X143870331Y-89497715D01*
X143869661Y-89487501D01*
X143938904Y-89487501D01*
X143942098Y-89497107D01*
X143948686Y-89504897D01*
X143956295Y-89511303D01*
X143961618Y-89515101D01*
X143971310Y-89521449D01*
X143981039Y-89527763D01*
X143989904Y-89533483D01*
X143999731Y-89539799D01*
X144010520Y-89546711D01*
X144019243Y-89552285D01*
X144028506Y-89558194D01*
X144038311Y-89564438D01*
X144045173Y-89552169D01*
X144051839Y-89539422D01*
X144058309Y-89526196D01*
X144064582Y-89512490D01*
X144070659Y-89498306D01*
X144076539Y-89483643D01*
X144082222Y-89468501D01*
X144087709Y-89452880D01*
X144092999Y-89436780D01*
X144098093Y-89420201D01*
X144102990Y-89403143D01*
X144107691Y-89385606D01*
X144112195Y-89367590D01*
X144116503Y-89349096D01*
X144120614Y-89330122D01*
X144122596Y-89320456D01*
X144124528Y-89310669D01*
X144112392Y-89313095D01*
X144100589Y-89315486D01*
X144089120Y-89317842D01*
X144077985Y-89320164D01*
X144067184Y-89322452D01*
X144056717Y-89324706D01*
X144046584Y-89326925D01*
X144036784Y-89329110D01*
X144022711Y-89332323D01*
X144009390Y-89335458D01*
X143996820Y-89338516D01*
X143985001Y-89341497D01*
X143973933Y-89344401D01*
X143970411Y-89345352D01*
X143966596Y-89360104D01*
X143963027Y-89374073D01*
X143959704Y-89387261D01*
X143956627Y-89399665D01*
X143953796Y-89411288D01*
X143951211Y-89422128D01*
X143948873Y-89432186D01*
X143945827Y-89445806D01*
X143943335Y-89457665D01*
X143941396Y-89467765D01*
X143939673Y-89478492D01*
X143938904Y-89487501D01*
X143869661Y-89487501D01*
X143869661Y-89487498D01*
X143870875Y-89476148D01*
X143873203Y-89466252D01*
X143876168Y-89455566D01*
X143879202Y-89444148D01*
X143882304Y-89431997D01*
X143884676Y-89422403D01*
X143887087Y-89412397D01*
X143889537Y-89401978D01*
X143892025Y-89391147D01*
X143894551Y-89379905D01*
X143897116Y-89368250D01*
X143898848Y-89360251D01*
X143888435Y-89362467D01*
X143878260Y-89364659D01*
X143868325Y-89366827D01*
X143858628Y-89368971D01*
X143839952Y-89373185D01*
X143822232Y-89377302D01*
X143805468Y-89381321D01*
X143789660Y-89385244D01*
X143774808Y-89389069D01*
X143760912Y-89392796D01*
X143747972Y-89396426D01*
X143735988Y-89399959D01*
X143724960Y-89403395D01*
X143714887Y-89406733D01*
X143701572Y-89411558D01*
X143690407Y-89416164D01*
X143684159Y-89419113D01*
X143672424Y-89423574D01*
X143660177Y-89425479D01*
X143647419Y-89424826D01*
X143637515Y-89422659D01*
X143627323Y-89419053D01*
X143616844Y-89414009D01*
X143606077Y-89407527D01*
X143595023Y-89399606D01*
X143583680Y-89390248D01*
X143575959Y-89383210D01*
X143568745Y-89376077D01*
X143559953Y-89366337D01*
X143553596Y-89357747D01*
X143548905Y-89348084D01*
X143549984Y-89337425D01*
X143558322Y-89332059D01*
X143569860Y-89330067D01*
X143581354Y-89329915D01*
X143590369Y-89330453D01*
X143600617Y-89331055D01*
X143612187Y-89331274D01*
X143625080Y-89331109D01*
X143639294Y-89330560D01*
X143654831Y-89329628D01*
X143671691Y-89328312D01*
X143689873Y-89326613D01*
X143709377Y-89324530D01*
X143719625Y-89323345D01*
X143730203Y-89322064D01*
X143741112Y-89320687D01*
X143752352Y-89319214D01*
X143763922Y-89317645D01*
X143775823Y-89315981D01*
X143788055Y-89314220D01*
X143800617Y-89312364D01*
X143813509Y-89310412D01*
X143826733Y-89308363D01*
X143840286Y-89306219D01*
X143854171Y-89303979D01*
X143868386Y-89301644D01*
X143882931Y-89299212D01*
X143897807Y-89296684D01*
X143913014Y-89294061D01*
X143914332Y-89283820D01*
X143915630Y-89273704D01*
X143916908Y-89263713D01*
X143918166Y-89253849D01*
X143919404Y-89244109D01*
X143921820Y-89225007D01*
X143924155Y-89206406D01*
X143926411Y-89188307D01*
X143928586Y-89170710D01*
X143930681Y-89153615D01*
X143932696Y-89137022D01*
X143934631Y-89120931D01*
X143936486Y-89105341D01*
X143938260Y-89090253D01*
X143939955Y-89075667D01*
X143941569Y-89061583D01*
X143943103Y-89048001D01*
X143944557Y-89034921D01*
X143945254Y-89028569D01*
X143946513Y-89016102D01*
X143947540Y-89003919D01*
X143948337Y-88992021D01*
X143948903Y-88980407D01*
X143949237Y-88969078D01*
X143949341Y-88958032D01*
X143949215Y-88947271D01*
X143948857Y-88936795D01*
X143948268Y-88926602D01*
X143947449Y-88916694D01*
X143945786Y-88902365D01*
X143943605Y-88888676D01*
X143940903Y-88875626D01*
X143937683Y-88863217D01*
X143934937Y-88851889D01*
X143933570Y-88842085D01*
X143933890Y-88831384D01*
X143937736Y-88821818D01*
X143947405Y-88815928D01*
X143959673Y-88815676D01*
X143972244Y-88818523D01*
G37*
G36*
X144685257Y-89209105D02*
G01*
X144696980Y-89211396D01*
X144709437Y-89214856D01*
X144712665Y-89215903D01*
X144722352Y-89219322D01*
X144731811Y-89223076D01*
X144741042Y-89227165D01*
X144750046Y-89231588D01*
X144758822Y-89236347D01*
X144767371Y-89241440D01*
X144775692Y-89246868D01*
X144783786Y-89252631D01*
X144791652Y-89258729D01*
X144799290Y-89265162D01*
X144804256Y-89269637D01*
X144812847Y-89278803D01*
X144818835Y-89288107D01*
X144822220Y-89297549D01*
X144822791Y-89309544D01*
X144820320Y-89319295D01*
X144815246Y-89329183D01*
X144807570Y-89339208D01*
X144800104Y-89346817D01*
X144791869Y-89355553D01*
X144783466Y-89366555D01*
X144777771Y-89375150D01*
X144772002Y-89384751D01*
X144766158Y-89395361D01*
X144760240Y-89406977D01*
X144754248Y-89419602D01*
X144748181Y-89433234D01*
X144742039Y-89447873D01*
X144735823Y-89463520D01*
X144729533Y-89480174D01*
X144723169Y-89497836D01*
X144716730Y-89516505D01*
X144713482Y-89526218D01*
X144710216Y-89536182D01*
X144706931Y-89546398D01*
X144703628Y-89556866D01*
X144713265Y-89567472D01*
X144721782Y-89577367D01*
X144729179Y-89586553D01*
X144735456Y-89595029D01*
X144742771Y-89606412D01*
X144747566Y-89616198D01*
X144750039Y-89626762D01*
X144745348Y-89637283D01*
X144733738Y-89641171D01*
X144723412Y-89641374D01*
X144711882Y-89640830D01*
X144700374Y-89640390D01*
X144688887Y-89640052D01*
X144677422Y-89639817D01*
X144665978Y-89639686D01*
X144654555Y-89639657D01*
X144643155Y-89639731D01*
X144631775Y-89639909D01*
X144620417Y-89640189D01*
X144609081Y-89640573D01*
X144601535Y-89640886D01*
X144589597Y-89641458D01*
X144576316Y-89642168D01*
X144561690Y-89643015D01*
X144551194Y-89643656D01*
X144540100Y-89644359D01*
X144528409Y-89645122D01*
X144516120Y-89645946D01*
X144503234Y-89646832D01*
X144489751Y-89647778D01*
X144475671Y-89648785D01*
X144460994Y-89649854D01*
X144445719Y-89650984D01*
X144429847Y-89652174D01*
X144413378Y-89653426D01*
X144404919Y-89654075D01*
X144403409Y-89663879D01*
X144400975Y-89677225D01*
X144398340Y-89688941D01*
X144395503Y-89699024D01*
X144391406Y-89709931D01*
X144385781Y-89719486D01*
X144376963Y-89725250D01*
X144369993Y-89723928D01*
X144361807Y-89717537D01*
X144355772Y-89709023D01*
X144351460Y-89700125D01*
X144347605Y-89689373D01*
X144344209Y-89676766D01*
X144341962Y-89666093D01*
X144339973Y-89654378D01*
X144338241Y-89641618D01*
X144336684Y-89628054D01*
X144335127Y-89614012D01*
X144333570Y-89599494D01*
X144332532Y-89589551D01*
X144331494Y-89579396D01*
X144330456Y-89569029D01*
X144329418Y-89558450D01*
X144328380Y-89547660D01*
X144327342Y-89536657D01*
X144326304Y-89525443D01*
X144325266Y-89514017D01*
X144324228Y-89502379D01*
X144323189Y-89490530D01*
X144322151Y-89478468D01*
X144321632Y-89472358D01*
X144320525Y-89460205D01*
X144319217Y-89448293D01*
X144317708Y-89436620D01*
X144316000Y-89425189D01*
X144314090Y-89413998D01*
X144311981Y-89403047D01*
X144309671Y-89392336D01*
X144307161Y-89381866D01*
X144304451Y-89371637D01*
X144301540Y-89361647D01*
X144298428Y-89351899D01*
X144295117Y-89342390D01*
X144292259Y-89334849D01*
X144395150Y-89334849D01*
X144395820Y-89349880D01*
X144396489Y-89365113D01*
X144397156Y-89380548D01*
X144397821Y-89396185D01*
X144398484Y-89412024D01*
X144399145Y-89428066D01*
X144399804Y-89444310D01*
X144400462Y-89460757D01*
X144401117Y-89477405D01*
X144401771Y-89494256D01*
X144402422Y-89511309D01*
X144403072Y-89528565D01*
X144403720Y-89546022D01*
X144404366Y-89563682D01*
X144405010Y-89581544D01*
X144405652Y-89599609D01*
X144415791Y-89598293D01*
X144426424Y-89596850D01*
X144437551Y-89595278D01*
X144449173Y-89593579D01*
X144461289Y-89591752D01*
X144473899Y-89589797D01*
X144487003Y-89587714D01*
X144500601Y-89585504D01*
X144514694Y-89583165D01*
X144529281Y-89580699D01*
X144544362Y-89578105D01*
X144559937Y-89575383D01*
X144576007Y-89572533D01*
X144592570Y-89569555D01*
X144609628Y-89566450D01*
X144627180Y-89563217D01*
X144628452Y-89545840D01*
X144629642Y-89529187D01*
X144630749Y-89513256D01*
X144631775Y-89498049D01*
X144632719Y-89483566D01*
X144633580Y-89469805D01*
X144634360Y-89456768D01*
X144635057Y-89444453D01*
X144635672Y-89432862D01*
X144636206Y-89421995D01*
X144636657Y-89411850D01*
X144637180Y-89397989D01*
X144637519Y-89385755D01*
X144637672Y-89375148D01*
X144637683Y-89371974D01*
X144637545Y-89360873D01*
X144637133Y-89350893D01*
X144636232Y-89339996D01*
X144634583Y-89329235D01*
X144631423Y-89318812D01*
X144628890Y-89314577D01*
X144619468Y-89309568D01*
X144608020Y-89308276D01*
X144597395Y-89308469D01*
X144587427Y-89309294D01*
X144576154Y-89310713D01*
X144570027Y-89311646D01*
X144559982Y-89313178D01*
X144548624Y-89314843D01*
X144535951Y-89316642D01*
X144521965Y-89318573D01*
X144511911Y-89319934D01*
X144501273Y-89321355D01*
X144490051Y-89322835D01*
X144478246Y-89324374D01*
X144465856Y-89325972D01*
X144452882Y-89327629D01*
X144439325Y-89329345D01*
X144425184Y-89331121D01*
X144410459Y-89332956D01*
X144395150Y-89334849D01*
X144292259Y-89334849D01*
X144291605Y-89333123D01*
X144285961Y-89319672D01*
X144279867Y-89306762D01*
X144274305Y-89294830D01*
X144270258Y-89284316D01*
X144267221Y-89272501D01*
X144267212Y-89261274D01*
X144272759Y-89252996D01*
X144284368Y-89250386D01*
X144295476Y-89251794D01*
X144298674Y-89252540D01*
X144308290Y-89254947D01*
X144320397Y-89258098D01*
X144331688Y-89261179D01*
X144342161Y-89264192D01*
X144351819Y-89267137D01*
X144362742Y-89270720D01*
X144372388Y-89274197D01*
X144377564Y-89276231D01*
X144387666Y-89278666D01*
X144398316Y-89279395D01*
X144411247Y-89279040D01*
X144422444Y-89278063D01*
X144434924Y-89276476D01*
X144448687Y-89274279D01*
X144458576Y-89272476D01*
X144469036Y-89270402D01*
X144480066Y-89268057D01*
X144491666Y-89265441D01*
X144503838Y-89262554D01*
X144516045Y-89259548D01*
X144527693Y-89256577D01*
X144538782Y-89253641D01*
X144549313Y-89250738D01*
X144559284Y-89247870D01*
X144568696Y-89245037D01*
X144581765Y-89240851D01*
X144593577Y-89236742D01*
X144604131Y-89232711D01*
X144613426Y-89228756D01*
X144623864Y-89223604D01*
X144632065Y-89218590D01*
X144641568Y-89213243D01*
X144652215Y-89209722D01*
X144664007Y-89208025D01*
X144674266Y-89207981D01*
X144685257Y-89209105D01*
G37*
G36*
X147750802Y-89561263D02*
G01*
X147763518Y-89559961D01*
X147774598Y-89558800D01*
X147787000Y-89557480D01*
X147800724Y-89556001D01*
X147810608Y-89554926D01*
X147821080Y-89553781D01*
X147832140Y-89552566D01*
X147843787Y-89551280D01*
X147856022Y-89549923D01*
X147868845Y-89548496D01*
X147882255Y-89546998D01*
X147896253Y-89545429D01*
X147910839Y-89543790D01*
X147918353Y-89542944D01*
X147933261Y-89541296D01*
X147947639Y-89539830D01*
X147961486Y-89538548D01*
X147974803Y-89537449D01*
X147987590Y-89536533D01*
X147999846Y-89535800D01*
X148011571Y-89535251D01*
X148022766Y-89534884D01*
X148033431Y-89534701D01*
X148043565Y-89534701D01*
X148057772Y-89535045D01*
X148070785Y-89535800D01*
X148082604Y-89536968D01*
X148093230Y-89538548D01*
X148094261Y-89528767D01*
X148095154Y-89517009D01*
X148095733Y-89506893D01*
X148096236Y-89495665D01*
X148096661Y-89483326D01*
X148097009Y-89469874D01*
X148097279Y-89455310D01*
X148097416Y-89444983D01*
X148097520Y-89434162D01*
X148097588Y-89422847D01*
X148097623Y-89411037D01*
X148097627Y-89404947D01*
X148097513Y-89392328D01*
X148097173Y-89380053D01*
X148096605Y-89368125D01*
X148095810Y-89356541D01*
X148094788Y-89345303D01*
X148093540Y-89334411D01*
X148092064Y-89323863D01*
X148090361Y-89313661D01*
X148088431Y-89303805D01*
X148085110Y-89289668D01*
X148081278Y-89276308D01*
X148076935Y-89263724D01*
X148072082Y-89251919D01*
X148068562Y-89244480D01*
X148064455Y-89234531D01*
X148063012Y-89224225D01*
X148069492Y-89215106D01*
X148079575Y-89213253D01*
X148090162Y-89214083D01*
X148103343Y-89216814D01*
X148113570Y-89219692D01*
X148124951Y-89223414D01*
X148137483Y-89227982D01*
X148151169Y-89233396D01*
X148158443Y-89236420D01*
X148172709Y-89242655D01*
X148185768Y-89248845D01*
X148197621Y-89254990D01*
X148208269Y-89261088D01*
X148217710Y-89267141D01*
X148225946Y-89273148D01*
X148236038Y-89282072D01*
X148243417Y-89290893D01*
X148248082Y-89299612D01*
X148250082Y-89311076D01*
X148247258Y-89322357D01*
X148241974Y-89330697D01*
X148235549Y-89339965D01*
X148229552Y-89351191D01*
X148223985Y-89364374D01*
X148220512Y-89374251D01*
X148217230Y-89384997D01*
X148214139Y-89396614D01*
X148211239Y-89409101D01*
X148208529Y-89422458D01*
X148206011Y-89436685D01*
X148203683Y-89451783D01*
X148201546Y-89467750D01*
X148199599Y-89484588D01*
X148197844Y-89502295D01*
X148196279Y-89520873D01*
X148195568Y-89530488D01*
X148194245Y-89549536D01*
X148192962Y-89567785D01*
X148191719Y-89585234D01*
X148190515Y-89601883D01*
X148189352Y-89617733D01*
X148188230Y-89632784D01*
X148187147Y-89647035D01*
X148186104Y-89660486D01*
X148185101Y-89673138D01*
X148184138Y-89684991D01*
X148183216Y-89696044D01*
X148182333Y-89706297D01*
X148181085Y-89720178D01*
X148179926Y-89732260D01*
X148179204Y-89739316D01*
X148177917Y-89749212D01*
X148176161Y-89759028D01*
X148173938Y-89768761D01*
X148171247Y-89778414D01*
X148168088Y-89787984D01*
X148164461Y-89797473D01*
X148160366Y-89806880D01*
X148155802Y-89816206D01*
X148150771Y-89825451D01*
X148145272Y-89834613D01*
X148141346Y-89840676D01*
X148135356Y-89848597D01*
X148127395Y-89855731D01*
X148117487Y-89859143D01*
X148107627Y-89856437D01*
X148099773Y-89849868D01*
X148091949Y-89839382D01*
X148086102Y-89828949D01*
X148080271Y-89816313D01*
X148078332Y-89811612D01*
X148074671Y-89802122D01*
X148069877Y-89788482D01*
X148065921Y-89775555D01*
X148062802Y-89763341D01*
X148060520Y-89751839D01*
X148059075Y-89741050D01*
X148058468Y-89730973D01*
X148058960Y-89718647D01*
X148060941Y-89707587D01*
X148064410Y-89697794D01*
X148068562Y-89688288D01*
X148072470Y-89678209D01*
X148076133Y-89667558D01*
X148079553Y-89656334D01*
X148082728Y-89644538D01*
X148085659Y-89632169D01*
X148087697Y-89622517D01*
X148089597Y-89612543D01*
X148090788Y-89605715D01*
X148080100Y-89606380D01*
X148069468Y-89607062D01*
X148058893Y-89607761D01*
X148048374Y-89608478D01*
X148037911Y-89609211D01*
X148027504Y-89609962D01*
X148017154Y-89610730D01*
X148006860Y-89611516D01*
X147996622Y-89612318D01*
X147986441Y-89613137D01*
X147976316Y-89613974D01*
X147966247Y-89614828D01*
X147956235Y-89615699D01*
X147946278Y-89616587D01*
X147936378Y-89617493D01*
X147926535Y-89618415D01*
X147916747Y-89619355D01*
X147907016Y-89620312D01*
X147887723Y-89622278D01*
X147868655Y-89624312D01*
X147849812Y-89626414D01*
X147831194Y-89628586D01*
X147812802Y-89630826D01*
X147794634Y-89633135D01*
X147776692Y-89635512D01*
X147759063Y-89637905D01*
X147741776Y-89640321D01*
X147724831Y-89642760D01*
X147708227Y-89645221D01*
X147691965Y-89647705D01*
X147676045Y-89650213D01*
X147660466Y-89652743D01*
X147645228Y-89655296D01*
X147630332Y-89657872D01*
X147615778Y-89660471D01*
X147601565Y-89663093D01*
X147587694Y-89665737D01*
X147574164Y-89668405D01*
X147560976Y-89671096D01*
X147548129Y-89673809D01*
X147535624Y-89676545D01*
X147523462Y-89679273D01*
X147511585Y-89682022D01*
X147499992Y-89684791D01*
X147488684Y-89687582D01*
X147477659Y-89690394D01*
X147466919Y-89693226D01*
X147456464Y-89696080D01*
X147446292Y-89698954D01*
X147436405Y-89701850D01*
X147426802Y-89704767D01*
X147417484Y-89707704D01*
X147404039Y-89712150D01*
X147391235Y-89716643D01*
X147379069Y-89721183D01*
X147375157Y-89722707D01*
X147363817Y-89727350D01*
X147352971Y-89732213D01*
X147342620Y-89737294D01*
X147332761Y-89742594D01*
X147323397Y-89748113D01*
X147314526Y-89753851D01*
X147306149Y-89759808D01*
X147298266Y-89765984D01*
X147290876Y-89772379D01*
X147281792Y-89781246D01*
X147279658Y-89783524D01*
X147271269Y-89791038D01*
X147260891Y-89795805D01*
X147250633Y-89795431D01*
X147240493Y-89789918D01*
X147232468Y-89781806D01*
X147226498Y-89773564D01*
X147220572Y-89763471D01*
X147214689Y-89751528D01*
X147209471Y-89738992D01*
X147205541Y-89727122D01*
X147202899Y-89715917D01*
X147201546Y-89705377D01*
X147201480Y-89695503D01*
X147203396Y-89683373D01*
X147207601Y-89672426D01*
X147214096Y-89662662D01*
X147222882Y-89654081D01*
X147225436Y-89652121D01*
X147235118Y-89643618D01*
X147243159Y-89633620D01*
X147248112Y-89625139D01*
X147252143Y-89615817D01*
X147255251Y-89605653D01*
X147257435Y-89594648D01*
X147258697Y-89582801D01*
X147259035Y-89570113D01*
X147258451Y-89556583D01*
X147256943Y-89542212D01*
X147255458Y-89532423D01*
X147253630Y-89522779D01*
X147250244Y-89508585D01*
X147246086Y-89494718D01*
X147241154Y-89481177D01*
X147235450Y-89467962D01*
X147228972Y-89455073D01*
X147221722Y-89442511D01*
X147213700Y-89430275D01*
X147207922Y-89422299D01*
X147201800Y-89414468D01*
X147195336Y-89406782D01*
X147191974Y-89402993D01*
X147183242Y-89392394D01*
X147177377Y-89383310D01*
X147174019Y-89373555D01*
X147178541Y-89363975D01*
X147187929Y-89360957D01*
X147198316Y-89360461D01*
X147211571Y-89361481D01*
X147222001Y-89363002D01*
X147233706Y-89365198D01*
X147246685Y-89368066D01*
X147259882Y-89371335D01*
X147272178Y-89374730D01*
X147283573Y-89378250D01*
X147294068Y-89381897D01*
X147303662Y-89385669D01*
X147316365Y-89391564D01*
X147327041Y-89397742D01*
X147335690Y-89404203D01*
X147344071Y-89413260D01*
X147348849Y-89422819D01*
X147350024Y-89432883D01*
X147349755Y-89435478D01*
X147348381Y-89446579D01*
X147347191Y-89459123D01*
X147346418Y-89469478D01*
X147345748Y-89480644D01*
X147345181Y-89492622D01*
X147344718Y-89505411D01*
X147344357Y-89519012D01*
X147344100Y-89533424D01*
X147343985Y-89543482D01*
X147343916Y-89553902D01*
X147343893Y-89564682D01*
X147339253Y-89631849D01*
X147356111Y-89628590D01*
X147373470Y-89625285D01*
X147391328Y-89621934D01*
X147409686Y-89618538D01*
X147428545Y-89615095D01*
X147438161Y-89613357D01*
X147447903Y-89611607D01*
X147457769Y-89609846D01*
X147467761Y-89608073D01*
X147477877Y-89606289D01*
X147488119Y-89604494D01*
X147498485Y-89602687D01*
X147508977Y-89600868D01*
X147519593Y-89599038D01*
X147530335Y-89597197D01*
X147541201Y-89595344D01*
X147552193Y-89593480D01*
X147563309Y-89591604D01*
X147574550Y-89589717D01*
X147585917Y-89587818D01*
X147597408Y-89585908D01*
X147609024Y-89583987D01*
X147620766Y-89582054D01*
X147632632Y-89580109D01*
X147644623Y-89578154D01*
X147656739Y-89576186D01*
X147668981Y-89574207D01*
X147668978Y-89553537D01*
X147668970Y-89533290D01*
X147668957Y-89513468D01*
X147668939Y-89494069D01*
X147668915Y-89475095D01*
X147668886Y-89456544D01*
X147668852Y-89438418D01*
X147668813Y-89420716D01*
X147668768Y-89403438D01*
X147668718Y-89386584D01*
X147668663Y-89370154D01*
X147668603Y-89354148D01*
X147668537Y-89338567D01*
X147668466Y-89323409D01*
X147668390Y-89308676D01*
X147668309Y-89294366D01*
X147668222Y-89280481D01*
X147668131Y-89267020D01*
X147668034Y-89253982D01*
X147667931Y-89241369D01*
X147667824Y-89229180D01*
X147667711Y-89217415D01*
X147667593Y-89206075D01*
X147667469Y-89195158D01*
X147667341Y-89184665D01*
X147667207Y-89174597D01*
X147666924Y-89155732D01*
X147666619Y-89138563D01*
X147666294Y-89123091D01*
X147665802Y-89108626D01*
X147664996Y-89094480D01*
X147663878Y-89080653D01*
X147662447Y-89067144D01*
X147660703Y-89053954D01*
X147658646Y-89041083D01*
X147656276Y-89028530D01*
X147653593Y-89016296D01*
X147650598Y-89004380D01*
X147647289Y-88992784D01*
X147643667Y-88981505D01*
X147639733Y-88970546D01*
X147635485Y-88959905D01*
X147630925Y-88949583D01*
X147626051Y-88939580D01*
X147620865Y-88929895D01*
X147616025Y-88920754D01*
X147610536Y-88908484D01*
X147607172Y-88897945D01*
X147605993Y-88886584D01*
X147609832Y-88876708D01*
X147619574Y-88871638D01*
X147631618Y-88871043D01*
X147643131Y-88872615D01*
X147656769Y-88875917D01*
X147666415Y-88878684D01*
X147680309Y-88882906D01*
X147693512Y-88887213D01*
X147706023Y-88891607D01*
X147717844Y-88896086D01*
X147728973Y-88900652D01*
X147739410Y-88905303D01*
X147749157Y-88910040D01*
X147758212Y-88914862D01*
X147769211Y-88921426D01*
X147774249Y-88924766D01*
X147783088Y-88931700D01*
X147790064Y-88939069D01*
X147796165Y-88948893D01*
X147799357Y-88959396D01*
X147799638Y-88970579D01*
X147797010Y-88982441D01*
X147792812Y-88992421D01*
X147787931Y-89004286D01*
X147784515Y-89015373D01*
X147781310Y-89028337D01*
X147779291Y-89038022D01*
X147777364Y-89048541D01*
X147775532Y-89059893D01*
X147773792Y-89072079D01*
X147772147Y-89085100D01*
X147770594Y-89098954D01*
X147769135Y-89113642D01*
X147767770Y-89129164D01*
X147766498Y-89145519D01*
X147765320Y-89162709D01*
X147764235Y-89180732D01*
X147763238Y-89199506D01*
X147762262Y-89218949D01*
X147761782Y-89228920D01*
X147761307Y-89239059D01*
X147760838Y-89249364D01*
X147760373Y-89259836D01*
X147759914Y-89270476D01*
X147759460Y-89281282D01*
X147759012Y-89292255D01*
X147758568Y-89303396D01*
X147758130Y-89314703D01*
X147757697Y-89326177D01*
X147757269Y-89337818D01*
X147756847Y-89349626D01*
X147756430Y-89361601D01*
X147756018Y-89373743D01*
X147755611Y-89386052D01*
X147755210Y-89398528D01*
X147754814Y-89411171D01*
X147754423Y-89423981D01*
X147754037Y-89436958D01*
X147753657Y-89450102D01*
X147753281Y-89463412D01*
X147752911Y-89476890D01*
X147752547Y-89490535D01*
X147752187Y-89504346D01*
X147751833Y-89518325D01*
X147751484Y-89532471D01*
X147751140Y-89546783D01*
X147750802Y-89561263D01*
G37*
D11*
%TO.C,D1*%
X155058300Y-95758000D03*
D12*
X155058300Y-98298000D03*
%TD*%
D13*
%TO.C,Pinecil LED Ring*%
X145975168Y-97042345D03*
%TD*%
D11*
%TO.C,D2*%
X136897600Y-96113600D03*
D12*
X136897600Y-98653600D03*
%TD*%
D14*
%TO.C,R3*%
X138298059Y-100664888D03*
X140121941Y-101895112D03*
%TD*%
D15*
%TO.C,REF\u002A\u002A*%
X153402716Y-93331603D03*
D16*
X151953467Y-92016067D03*
%TD*%
M02*
