%TF.GenerationSoftware,KiCad,Pcbnew,7.0.8*%
%TF.CreationDate,2023-11-03T07:12:53-06:00*%
%TF.ProjectId,Pinecil_LEDring,50696e65-6369-46c5-9f4c-454472696e67,rev?*%
%TF.SameCoordinates,Original*%
%TF.FileFunction,Copper,L1,Top*%
%TF.FilePolarity,Positive*%
%FSLAX46Y46*%
G04 Gerber Fmt 4.6, Leading zero omitted, Abs format (unit mm)*
G04 Created by KiCad (PCBNEW 7.0.8) date 2023-11-03 07:12:53*
%MOMM*%
%LPD*%
G01*
G04 APERTURE LIST*
G04 Aperture macros list*
%AMHorizOval*
0 Thick line with rounded ends*
0 $1 width*
0 $2 $3 position (X,Y) of the first rounded end (center of the circle)*
0 $4 $5 position (X,Y) of the second rounded end (center of the circle)*
0 Add line between two ends*
20,1,$1,$2,$3,$4,$5,0*
0 Add two circle primitives to create the rounded ends*
1,1,$1,$2,$3*
1,1,$1,$4,$5*%
%AMRotRect*
0 Rectangle, with rotation*
0 The origin of the aperture is its center*
0 $1 length*
0 $2 width*
0 $3 Rotation angle, in degrees counterclockwise*
0 Add horizontal line*
21,1,$1,$2,0,0,$3*%
G04 Aperture macros list end*
%TA.AperFunction,ComponentPad*%
%ADD10R,2.000000X2.000000*%
%TD*%
%TA.AperFunction,ComponentPad*%
%ADD11C,2.000000*%
%TD*%
%TA.AperFunction,ComponentPad*%
%ADD12C,13.060000*%
%TD*%
%TA.AperFunction,SMDPad,CuDef*%
%ADD13RotRect,1.200000X0.900000X326.000000*%
%TD*%
%TA.AperFunction,ComponentPad*%
%ADD14RotRect,1.400000X1.400000X230.000000*%
%TD*%
%TA.AperFunction,ComponentPad*%
%ADD15HorizOval,1.000000X-0.191511X0.160697X0.191511X-0.160697X0*%
%TD*%
%TA.AperFunction,ViaPad*%
%ADD16C,0.800000*%
%TD*%
%TA.AperFunction,Conductor*%
%ADD17C,0.250000*%
%TD*%
G04 APERTURE END LIST*
D10*
%TO.P,D1,1,K*%
%TO.N,GND*%
X155058300Y-95758000D03*
D11*
%TO.P,D1,2,A*%
%TO.N,Net-(D1-Pad2)*%
X155058300Y-98298000D03*
%TD*%
D12*
%TO.P,Pinecil LED Ring,Hole*%
%TO.N,N/C*%
X145975168Y-97042345D03*
%TD*%
D10*
%TO.P,D2,1,K*%
%TO.N,GND*%
X136897600Y-96113600D03*
D11*
%TO.P,D2,2,A*%
%TO.N,Net-(D2-Pad2)*%
X136897600Y-98653600D03*
%TD*%
D13*
%TO.P,R3,1*%
%TO.N,+5V*%
X138298059Y-100664888D03*
%TO.P,R3,2*%
%TO.N,Net-(D4-Pad2)*%
X140121941Y-101895112D03*
%TD*%
D14*
%TO.P,REF\u002A\u002A,1*%
%TO.N,GND*%
X153402716Y-93331603D03*
D15*
%TO.P,REF\u002A\u002A,2*%
%TO.N,+5V*%
X151953467Y-92016067D03*
%TD*%
D16*
%TO.N,GND*%
X148400000Y-104260000D03*
X137050000Y-94150000D03*
X155000000Y-94000000D03*
%TO.N,+5V*%
X139040000Y-99540000D03*
%TO.N,Net-(D4-Pad2)*%
X143650000Y-104450000D03*
%TD*%
D17*
%TO.N,GND*%
X155000000Y-94000000D02*
X155200000Y-94000000D01*
X152030707Y-93331603D02*
X152030707Y-93330707D01*
X151368483Y-92668483D02*
X151311905Y-92621008D01*
X153402716Y-93331603D02*
X153402716Y-95697284D01*
X153402716Y-94102416D02*
X155058300Y-95758000D01*
X153402716Y-93331603D02*
X153402716Y-94102416D01*
X152030707Y-93330707D02*
X151368483Y-92668483D01*
X151048123Y-92357226D02*
X151311905Y-92621008D01*
X148841449Y-90142345D02*
X142868855Y-90142345D01*
X153402716Y-93331603D02*
X152030707Y-93331603D01*
X155200000Y-94000000D02*
X155150000Y-93950000D01*
X142868855Y-90142345D02*
X136897600Y-96113600D01*
X148842345Y-90142345D02*
X151047250Y-92347250D01*
X151047250Y-92347250D02*
X151048123Y-92357226D01*
%TO.N,+5V*%
X139040000Y-99922947D02*
X138298059Y-100664888D01*
X139040000Y-99540000D02*
X139040000Y-99922947D01*
%TO.N,Net-(D4-Pad2)*%
X143650000Y-104450000D02*
X142300000Y-103100000D01*
X141326829Y-103100000D02*
X140121941Y-101895112D01*
X142300000Y-103100000D02*
X141326829Y-103100000D01*
%TD*%
%TA.AperFunction,Conductor*%
%TO.N,GND*%
G36*
X152704234Y-94330827D02*
G01*
X152738794Y-94351438D01*
X153199672Y-94738161D01*
X153199683Y-94738169D01*
X153250214Y-94772077D01*
X153250215Y-94772078D01*
X153387872Y-94820948D01*
X153387870Y-94820948D01*
X153431291Y-94823361D01*
X153498197Y-94847112D01*
X153541641Y-94903265D01*
X153550300Y-94949167D01*
X153550300Y-95504000D01*
X154626732Y-95504000D01*
X154598457Y-95547997D01*
X154557920Y-95686056D01*
X154557920Y-95829944D01*
X154598457Y-95968003D01*
X154626732Y-96012000D01*
X153550300Y-96012000D01*
X153550300Y-96806597D01*
X153556805Y-96867093D01*
X153607855Y-97003964D01*
X153607855Y-97003965D01*
X153695395Y-97120904D01*
X153819552Y-97213847D01*
X153817839Y-97216135D01*
X153857721Y-97255999D01*
X153872828Y-97325369D01*
X153848032Y-97391895D01*
X153842962Y-97398235D01*
X153834125Y-97408582D01*
X153710059Y-97611038D01*
X153619194Y-97830407D01*
X153563765Y-98061289D01*
X153545135Y-98298000D01*
X153563765Y-98534710D01*
X153619194Y-98765592D01*
X153677341Y-98905971D01*
X153710060Y-98984963D01*
X153817011Y-99159491D01*
X153834125Y-99187417D01*
X153834126Y-99187419D01*
X153988330Y-99367969D01*
X154154487Y-99509880D01*
X154168884Y-99522176D01*
X154371337Y-99646240D01*
X154590706Y-99737105D01*
X154821589Y-99792535D01*
X155058300Y-99811165D01*
X155295011Y-99792535D01*
X155392703Y-99769081D01*
X155463609Y-99772628D01*
X155521343Y-99813948D01*
X155547573Y-99879922D01*
X155533971Y-99949603D01*
X155498476Y-99991824D01*
X152142035Y-102549112D01*
X149159455Y-104821554D01*
X148771477Y-105117156D01*
X148766093Y-105120834D01*
X148748264Y-105131706D01*
X148542209Y-105251596D01*
X148536424Y-105254574D01*
X148456489Y-105290626D01*
X148452882Y-105292120D01*
X148284059Y-105356004D01*
X148280368Y-105357271D01*
X148196648Y-105383151D01*
X148190341Y-105384750D01*
X147956082Y-105431395D01*
X147943740Y-105433589D01*
X147921685Y-105435534D01*
X144226949Y-105435534D01*
X144158828Y-105415532D01*
X144112335Y-105361876D01*
X144102231Y-105291602D01*
X144131725Y-105227022D01*
X144152888Y-105207598D01*
X144261253Y-105128866D01*
X144268485Y-105120834D01*
X144389034Y-104986951D01*
X144389035Y-104986949D01*
X144389040Y-104986944D01*
X144484527Y-104821556D01*
X144543542Y-104639928D01*
X144563504Y-104450000D01*
X144543542Y-104260072D01*
X144496672Y-104115825D01*
X144494645Y-104044859D01*
X144531307Y-103984061D01*
X144595019Y-103952736D01*
X144639940Y-103953088D01*
X144645051Y-103954055D01*
X144650452Y-103955078D01*
X144651013Y-103955208D01*
X144651036Y-103955212D01*
X144651043Y-103955214D01*
X144651050Y-103955215D01*
X144651055Y-103955216D01*
X144651718Y-103955318D01*
X144696442Y-103963780D01*
X144925400Y-104007101D01*
X144925406Y-104007101D01*
X144925408Y-104007102D01*
X145176746Y-104035421D01*
X145177619Y-104035554D01*
X145177659Y-104035559D01*
X145178602Y-104035630D01*
X145448809Y-104066075D01*
X145707742Y-104075763D01*
X145708813Y-104075845D01*
X145708819Y-104075845D01*
X145709919Y-104075845D01*
X145975168Y-104085770D01*
X146501527Y-104066075D01*
X147024928Y-104007102D01*
X147024929Y-104007101D01*
X147024936Y-104007101D01*
X147542478Y-103909177D01*
X147542479Y-103909176D01*
X147542488Y-103909175D01*
X148051254Y-103772850D01*
X148221778Y-103713181D01*
X148548420Y-103598884D01*
X148789808Y-103493568D01*
X149031199Y-103388251D01*
X149338993Y-103225575D01*
X149496880Y-103142130D01*
X149496883Y-103142128D01*
X149496887Y-103142126D01*
X149496888Y-103142125D01*
X149942870Y-102861897D01*
X150366677Y-102549112D01*
X150487584Y-102445062D01*
X150765914Y-102205541D01*
X151138364Y-101833091D01*
X151481939Y-101433849D01*
X151794719Y-101010048D01*
X151855667Y-100913051D01*
X152074948Y-100564066D01*
X152074949Y-100564065D01*
X152074954Y-100564057D01*
X152224775Y-100280581D01*
X152321077Y-100098370D01*
X152478694Y-99737105D01*
X152531707Y-99615597D01*
X152705673Y-99118431D01*
X152738011Y-98997744D01*
X152841998Y-98609665D01*
X152922158Y-98186007D01*
X152939924Y-98092113D01*
X152976872Y-97764191D01*
X152998898Y-97568704D01*
X153018593Y-97042345D01*
X152998898Y-96515986D01*
X152939925Y-95992585D01*
X152939924Y-95992583D01*
X152939924Y-95992577D01*
X152842000Y-95475035D01*
X152841999Y-95475033D01*
X152841998Y-95475025D01*
X152705673Y-94966259D01*
X152538874Y-94489575D01*
X152535254Y-94418671D01*
X152570543Y-94357066D01*
X152633537Y-94324319D01*
X152704234Y-94330827D01*
G37*
%TD.AperFunction*%
%TA.AperFunction,Conductor*%
G36*
X146380299Y-88326524D02*
G01*
X146643424Y-88343336D01*
X146923397Y-88370156D01*
X147184569Y-88406218D01*
X147460642Y-88452349D01*
X147463348Y-88452865D01*
X147719819Y-88507693D01*
X147991864Y-88573010D01*
X147994768Y-88573782D01*
X148246414Y-88647238D01*
X148513151Y-88731418D01*
X148516215Y-88732474D01*
X148586258Y-88758631D01*
X148761560Y-88824099D01*
X149021785Y-88926759D01*
X149024936Y-88928103D01*
X149262676Y-89037372D01*
X149443587Y-89123833D01*
X149515142Y-89158031D01*
X149518414Y-89159714D01*
X149587703Y-89197947D01*
X149747062Y-89285880D01*
X149990730Y-89424069D01*
X149994024Y-89426074D01*
X150212173Y-89568258D01*
X150228494Y-89579090D01*
X150446034Y-89723476D01*
X150449375Y-89725852D01*
X150655222Y-89882672D01*
X150878780Y-90054757D01*
X150882103Y-90057501D01*
X151069522Y-90223353D01*
X151280652Y-90410814D01*
X151283891Y-90414019D01*
X151286273Y-90416023D01*
X151302177Y-90431178D01*
X151309127Y-90433037D01*
X151318677Y-90439468D01*
X151595873Y-90645130D01*
X151638662Y-90701782D01*
X151644030Y-90772575D01*
X151610272Y-90835032D01*
X151548106Y-90869324D01*
X151544029Y-90870158D01*
X151478390Y-90882472D01*
X151478383Y-90882474D01*
X151294030Y-90956491D01*
X151278058Y-90966913D01*
X151127659Y-91065050D01*
X150985665Y-91203978D01*
X150985658Y-91203986D01*
X150873499Y-91367943D01*
X150873497Y-91367947D01*
X150795476Y-91550642D01*
X150776330Y-91641698D01*
X150742739Y-91704245D01*
X150680664Y-91738702D01*
X150609815Y-91734129D01*
X150570839Y-91711274D01*
X150384181Y-91550642D01*
X150366672Y-91535574D01*
X149942871Y-91222794D01*
X149942870Y-91222793D01*
X149496889Y-90942565D01*
X149496888Y-90942564D01*
X149496884Y-90942561D01*
X149496881Y-90942560D01*
X149175254Y-90772575D01*
X149031193Y-90696436D01*
X148665614Y-90536937D01*
X148548420Y-90485806D01*
X148341176Y-90413288D01*
X148051258Y-90311841D01*
X148051257Y-90311841D01*
X148051254Y-90311840D01*
X147821057Y-90250158D01*
X147820953Y-90250095D01*
X147820660Y-90250052D01*
X147819952Y-90249862D01*
X147818322Y-90249419D01*
X147818312Y-90249416D01*
X147818122Y-90249372D01*
X147741377Y-90228808D01*
X147542488Y-90175515D01*
X147542487Y-90175515D01*
X147542481Y-90175514D01*
X147542478Y-90175513D01*
X147299914Y-90129617D01*
X147299344Y-90129486D01*
X147299321Y-90129482D01*
X147299293Y-90129476D01*
X147298637Y-90129375D01*
X147161916Y-90103506D01*
X147024941Y-90077589D01*
X146905215Y-90064099D01*
X146773560Y-90049265D01*
X146772689Y-90049133D01*
X146772686Y-90049132D01*
X146772668Y-90049130D01*
X146771737Y-90049060D01*
X146501527Y-90018615D01*
X146242598Y-90008926D01*
X146241526Y-90008845D01*
X146241517Y-90008845D01*
X146240417Y-90008845D01*
X145975168Y-89998920D01*
X145448809Y-90018615D01*
X144925408Y-90077588D01*
X144925406Y-90077588D01*
X144925400Y-90077589D01*
X144407858Y-90175513D01*
X144407856Y-90175513D01*
X144407848Y-90175515D01*
X143899444Y-90311743D01*
X143899082Y-90311840D01*
X143401916Y-90485806D01*
X143284722Y-90536937D01*
X142919143Y-90696436D01*
X142775082Y-90772575D01*
X142453455Y-90942560D01*
X142453451Y-90942561D01*
X142453448Y-90942564D01*
X142453447Y-90942565D01*
X142007466Y-91222793D01*
X142007465Y-91222794D01*
X141718505Y-91436057D01*
X141583659Y-91535578D01*
X141462752Y-91639627D01*
X141184422Y-91879149D01*
X140811972Y-92251599D01*
X140614132Y-92481494D01*
X140468401Y-92650836D01*
X140155616Y-93074643D01*
X139875388Y-93520625D01*
X139875387Y-93520626D01*
X139629262Y-93986314D01*
X139599594Y-94054314D01*
X139437326Y-94426240D01*
X139418628Y-94469096D01*
X139244663Y-94966259D01*
X139108338Y-95475025D01*
X139108336Y-95475033D01*
X139108336Y-95475035D01*
X139010412Y-95992577D01*
X139010411Y-95992583D01*
X139010411Y-95992585D01*
X138951438Y-96515986D01*
X138931743Y-97042345D01*
X138951438Y-97568704D01*
X139010411Y-98092105D01*
X139010412Y-98092113D01*
X139028178Y-98186007D01*
X139084197Y-98482075D01*
X139077208Y-98552727D01*
X139033132Y-98608384D01*
X138965961Y-98631377D01*
X138960394Y-98631500D01*
X138944513Y-98631500D01*
X138757709Y-98671206D01*
X138586720Y-98747335D01*
X138516353Y-98756769D01*
X138452056Y-98726662D01*
X138414243Y-98666573D01*
X138409861Y-98642124D01*
X138392135Y-98416889D01*
X138336705Y-98186006D01*
X138245840Y-97966637D01*
X138121776Y-97764184D01*
X138112939Y-97753837D01*
X138083909Y-97689049D01*
X138094515Y-97618849D01*
X138137082Y-97570428D01*
X138136348Y-97569447D01*
X138141018Y-97565950D01*
X138141391Y-97565527D01*
X138142294Y-97564995D01*
X138260504Y-97476504D01*
X138348044Y-97359565D01*
X138348044Y-97359564D01*
X138399094Y-97222693D01*
X138405599Y-97162197D01*
X138405600Y-97162185D01*
X138405600Y-96367600D01*
X137329168Y-96367600D01*
X137357443Y-96323603D01*
X137397980Y-96185544D01*
X137397980Y-96041656D01*
X137357443Y-95903597D01*
X137329168Y-95859600D01*
X138405600Y-95859600D01*
X138405600Y-95065014D01*
X138405599Y-95065002D01*
X138399094Y-95004506D01*
X138348044Y-94867635D01*
X138348044Y-94867634D01*
X138260504Y-94750695D01*
X138143565Y-94663155D01*
X138006693Y-94612105D01*
X137946197Y-94605600D01*
X137151600Y-94605600D01*
X137151600Y-95679506D01*
X137040023Y-95628551D01*
X136933392Y-95613220D01*
X136861808Y-95613220D01*
X136755177Y-95628551D01*
X136643600Y-95679506D01*
X136643600Y-94605600D01*
X135848999Y-94605600D01*
X135806789Y-94610139D01*
X135736920Y-94597533D01*
X135684958Y-94549155D01*
X135667400Y-94480364D01*
X135689821Y-94413001D01*
X135715960Y-94385405D01*
X140657666Y-90541856D01*
X140670147Y-90536937D01*
X140689186Y-90518013D01*
X140691524Y-90515991D01*
X140694893Y-90512526D01*
X140913185Y-90311083D01*
X141086532Y-90151652D01*
X141089727Y-90148909D01*
X141313681Y-89969573D01*
X141512795Y-89811756D01*
X141516041Y-89809351D01*
X141749174Y-89648089D01*
X141962303Y-89503277D01*
X141965550Y-89501216D01*
X142208135Y-89357420D01*
X142432739Y-89227805D01*
X142435926Y-89226087D01*
X142687242Y-89099999D01*
X142921690Y-88986748D01*
X142924749Y-88985372D01*
X143183898Y-88877345D01*
X143426597Y-88781363D01*
X143429562Y-88780278D01*
X143695379Y-88690745D01*
X143944935Y-88612673D01*
X143947782Y-88611859D01*
X144218986Y-88541215D01*
X144238047Y-88536755D01*
X144473970Y-88481566D01*
X144476646Y-88481003D01*
X144752106Y-88429523D01*
X145012246Y-88388504D01*
X145291851Y-88356294D01*
X145554469Y-88334448D01*
X145835538Y-88321897D01*
X146099129Y-88319370D01*
X146380299Y-88326524D01*
G37*
%TD.AperFunction*%
%TA.AperFunction,Conductor*%
G36*
X155093611Y-93240225D02*
G01*
X155537615Y-93569648D01*
X155976877Y-93895552D01*
X155986713Y-93908575D01*
X156000607Y-93915129D01*
X156005718Y-93917550D01*
X156010277Y-93919941D01*
X156029171Y-93930858D01*
X156167207Y-94014412D01*
X156181842Y-94024762D01*
X156184034Y-94026559D01*
X156224034Y-94085215D01*
X156225972Y-94156185D01*
X156189233Y-94216937D01*
X156125481Y-94248182D01*
X156104152Y-94250000D01*
X155312300Y-94250000D01*
X155312300Y-95323906D01*
X155200723Y-95272951D01*
X155094092Y-95257620D01*
X155022508Y-95257620D01*
X154915877Y-95272951D01*
X154804300Y-95323906D01*
X154804300Y-94250000D01*
X154261237Y-94250000D01*
X154235921Y-94261805D01*
X154234859Y-94259528D01*
X154217321Y-94271190D01*
X154146333Y-94272299D01*
X154098949Y-94247385D01*
X153476314Y-93724932D01*
X153527864Y-93716768D01*
X153640761Y-93659244D01*
X153730357Y-93569648D01*
X153787881Y-93456751D01*
X153806548Y-93338884D01*
X154491364Y-93913513D01*
X154491366Y-93913513D01*
X154809265Y-93534657D01*
X154809282Y-93534635D01*
X154843190Y-93484104D01*
X154843191Y-93484103D01*
X154892061Y-93346447D01*
X154892729Y-93334426D01*
X154916479Y-93267520D01*
X154972632Y-93224075D01*
X155043358Y-93217885D01*
X155093611Y-93240225D01*
G37*
%TD.AperFunction*%
%TD*%
M02*
