%TF.GenerationSoftware,KiCad,Pcbnew,7.0.8*%
%TF.CreationDate,2023-11-03T07:12:57-06:00*%
%TF.ProjectId,Pinecil_LEDring,50696e65-6369-46c5-9f4c-454472696e67,rev?*%
%TF.SameCoordinates,Original*%
%TF.FileFunction,Drillmap*%
%TF.FilePolarity,Positive*%
%FSLAX45Y45*%
G04 Gerber Fmt 4.5, Leading zero omitted, Abs format (unit mm)*
G04 Created by KiCad (PCBNEW 7.0.8) date 2023-11-03 07:12:57*
%MOMM*%
%LPD*%
G01*
G04 APERTURE LIST*
%ADD10C,0.200000*%
%ADD11C,0.040000*%
%ADD12C,0.080000*%
%ADD13C,0.100076*%
%ADD14C,1.305000*%
G04 APERTURE END LIST*
D10*
D11*
X13685000Y-9395000D02*
X13725000Y-9435000D01*
X13725000Y-9395000D02*
X13685000Y-9435000D01*
X13884000Y-9934000D02*
X13924000Y-9974000D01*
X13924000Y-9934000D02*
X13884000Y-9974000D01*
X14345000Y-10425000D02*
X14385000Y-10465000D01*
X14385000Y-10425000D02*
X14345000Y-10465000D01*
X14820000Y-10406000D02*
X14860000Y-10446000D01*
X14860000Y-10406000D02*
X14820000Y-10446000D01*
X15480000Y-9380000D02*
X15520000Y-9420000D01*
X15520000Y-9380000D02*
X15480000Y-9420000D01*
D12*
X15235347Y-9201607D02*
G75*
G03*
X15235347Y-9201607I-40000J0D01*
G01*
X15380272Y-9333160D02*
G75*
G03*
X15380272Y-9333160I-40000J0D01*
G01*
D13*
X13689760Y-9561322D02*
X13689760Y-9661398D01*
X13639722Y-9611360D02*
X13739798Y-9611360D01*
X13689760Y-9815322D02*
X13689760Y-9915398D01*
X13639722Y-9865360D02*
X13739798Y-9865360D01*
X15505830Y-9525762D02*
X15505830Y-9625838D01*
X15455792Y-9575800D02*
X15555868Y-9575800D01*
X15505830Y-9779762D02*
X15505830Y-9879838D01*
X15455792Y-9829800D02*
X15555868Y-9829800D01*
D14*
X15058908Y-10165626D02*
X15058908Y-9242843D01*
X14136125Y-9242843D01*
X14136125Y-10165626D01*
X15058908Y-10165626D01*
D10*
X13788034Y-10861087D02*
X13788034Y-10661087D01*
X13788034Y-10661087D02*
X13835653Y-10661087D01*
X13835653Y-10661087D02*
X13864224Y-10670611D01*
X13864224Y-10670611D02*
X13883272Y-10689659D01*
X13883272Y-10689659D02*
X13892795Y-10708706D01*
X13892795Y-10708706D02*
X13902319Y-10746801D01*
X13902319Y-10746801D02*
X13902319Y-10775373D01*
X13902319Y-10775373D02*
X13892795Y-10813468D01*
X13892795Y-10813468D02*
X13883272Y-10832516D01*
X13883272Y-10832516D02*
X13864224Y-10851563D01*
X13864224Y-10851563D02*
X13835653Y-10861087D01*
X13835653Y-10861087D02*
X13788034Y-10861087D01*
X13988034Y-10861087D02*
X13988034Y-10727754D01*
X13988034Y-10765849D02*
X13997557Y-10746801D01*
X13997557Y-10746801D02*
X14007081Y-10737278D01*
X14007081Y-10737278D02*
X14026129Y-10727754D01*
X14026129Y-10727754D02*
X14045176Y-10727754D01*
X14111843Y-10861087D02*
X14111843Y-10727754D01*
X14111843Y-10661087D02*
X14102319Y-10670611D01*
X14102319Y-10670611D02*
X14111843Y-10680135D01*
X14111843Y-10680135D02*
X14121367Y-10670611D01*
X14121367Y-10670611D02*
X14111843Y-10661087D01*
X14111843Y-10661087D02*
X14111843Y-10680135D01*
X14235653Y-10861087D02*
X14216605Y-10851563D01*
X14216605Y-10851563D02*
X14207081Y-10832516D01*
X14207081Y-10832516D02*
X14207081Y-10661087D01*
X14340414Y-10861087D02*
X14321367Y-10851563D01*
X14321367Y-10851563D02*
X14311843Y-10832516D01*
X14311843Y-10832516D02*
X14311843Y-10661087D01*
X14568986Y-10861087D02*
X14568986Y-10661087D01*
X14568986Y-10661087D02*
X14635653Y-10803944D01*
X14635653Y-10803944D02*
X14702319Y-10661087D01*
X14702319Y-10661087D02*
X14702319Y-10861087D01*
X14883272Y-10861087D02*
X14883272Y-10756325D01*
X14883272Y-10756325D02*
X14873748Y-10737278D01*
X14873748Y-10737278D02*
X14854700Y-10727754D01*
X14854700Y-10727754D02*
X14816605Y-10727754D01*
X14816605Y-10727754D02*
X14797557Y-10737278D01*
X14883272Y-10851563D02*
X14864224Y-10861087D01*
X14864224Y-10861087D02*
X14816605Y-10861087D01*
X14816605Y-10861087D02*
X14797557Y-10851563D01*
X14797557Y-10851563D02*
X14788034Y-10832516D01*
X14788034Y-10832516D02*
X14788034Y-10813468D01*
X14788034Y-10813468D02*
X14797557Y-10794421D01*
X14797557Y-10794421D02*
X14816605Y-10784897D01*
X14816605Y-10784897D02*
X14864224Y-10784897D01*
X14864224Y-10784897D02*
X14883272Y-10775373D01*
X14978510Y-10727754D02*
X14978510Y-10927754D01*
X14978510Y-10737278D02*
X14997557Y-10727754D01*
X14997557Y-10727754D02*
X15035653Y-10727754D01*
X15035653Y-10727754D02*
X15054700Y-10737278D01*
X15054700Y-10737278D02*
X15064224Y-10746801D01*
X15064224Y-10746801D02*
X15073748Y-10765849D01*
X15073748Y-10765849D02*
X15073748Y-10822992D01*
X15073748Y-10822992D02*
X15064224Y-10842040D01*
X15064224Y-10842040D02*
X15054700Y-10851563D01*
X15054700Y-10851563D02*
X15035653Y-10861087D01*
X15035653Y-10861087D02*
X14997557Y-10861087D01*
X14997557Y-10861087D02*
X14978510Y-10851563D01*
X15159462Y-10842040D02*
X15168986Y-10851563D01*
X15168986Y-10851563D02*
X15159462Y-10861087D01*
X15159462Y-10861087D02*
X15149938Y-10851563D01*
X15149938Y-10851563D02*
X15159462Y-10842040D01*
X15159462Y-10842040D02*
X15159462Y-10861087D01*
X15159462Y-10737278D02*
X15168986Y-10746801D01*
X15168986Y-10746801D02*
X15159462Y-10756325D01*
X15159462Y-10756325D02*
X15149938Y-10746801D01*
X15149938Y-10746801D02*
X15159462Y-10737278D01*
X15159462Y-10737278D02*
X15159462Y-10756325D01*
D11*
X13487257Y-11169603D02*
X13527257Y-11209603D01*
X13527257Y-11169603D02*
X13487257Y-11209603D01*
D10*
X13826129Y-11081087D02*
X13845176Y-11081087D01*
X13845176Y-11081087D02*
X13864224Y-11090611D01*
X13864224Y-11090611D02*
X13873748Y-11100135D01*
X13873748Y-11100135D02*
X13883272Y-11119182D01*
X13883272Y-11119182D02*
X13892795Y-11157278D01*
X13892795Y-11157278D02*
X13892795Y-11204897D01*
X13892795Y-11204897D02*
X13883272Y-11242992D01*
X13883272Y-11242992D02*
X13873748Y-11262039D01*
X13873748Y-11262039D02*
X13864224Y-11271563D01*
X13864224Y-11271563D02*
X13845176Y-11281087D01*
X13845176Y-11281087D02*
X13826129Y-11281087D01*
X13826129Y-11281087D02*
X13807081Y-11271563D01*
X13807081Y-11271563D02*
X13797557Y-11262039D01*
X13797557Y-11262039D02*
X13788034Y-11242992D01*
X13788034Y-11242992D02*
X13778510Y-11204897D01*
X13778510Y-11204897D02*
X13778510Y-11157278D01*
X13778510Y-11157278D02*
X13788034Y-11119182D01*
X13788034Y-11119182D02*
X13797557Y-11100135D01*
X13797557Y-11100135D02*
X13807081Y-11090611D01*
X13807081Y-11090611D02*
X13826129Y-11081087D01*
X13978510Y-11262039D02*
X13988034Y-11271563D01*
X13988034Y-11271563D02*
X13978510Y-11281087D01*
X13978510Y-11281087D02*
X13968986Y-11271563D01*
X13968986Y-11271563D02*
X13978510Y-11262039D01*
X13978510Y-11262039D02*
X13978510Y-11281087D01*
X14159462Y-11147754D02*
X14159462Y-11281087D01*
X14111843Y-11071563D02*
X14064224Y-11214420D01*
X14064224Y-11214420D02*
X14188034Y-11214420D01*
X14302319Y-11081087D02*
X14321367Y-11081087D01*
X14321367Y-11081087D02*
X14340415Y-11090611D01*
X14340415Y-11090611D02*
X14349938Y-11100135D01*
X14349938Y-11100135D02*
X14359462Y-11119182D01*
X14359462Y-11119182D02*
X14368986Y-11157278D01*
X14368986Y-11157278D02*
X14368986Y-11204897D01*
X14368986Y-11204897D02*
X14359462Y-11242992D01*
X14359462Y-11242992D02*
X14349938Y-11262039D01*
X14349938Y-11262039D02*
X14340415Y-11271563D01*
X14340415Y-11271563D02*
X14321367Y-11281087D01*
X14321367Y-11281087D02*
X14302319Y-11281087D01*
X14302319Y-11281087D02*
X14283272Y-11271563D01*
X14283272Y-11271563D02*
X14273748Y-11262039D01*
X14273748Y-11262039D02*
X14264224Y-11242992D01*
X14264224Y-11242992D02*
X14254700Y-11204897D01*
X14254700Y-11204897D02*
X14254700Y-11157278D01*
X14254700Y-11157278D02*
X14264224Y-11119182D01*
X14264224Y-11119182D02*
X14273748Y-11100135D01*
X14273748Y-11100135D02*
X14283272Y-11090611D01*
X14283272Y-11090611D02*
X14302319Y-11081087D01*
X14492795Y-11081087D02*
X14511843Y-11081087D01*
X14511843Y-11081087D02*
X14530891Y-11090611D01*
X14530891Y-11090611D02*
X14540415Y-11100135D01*
X14540415Y-11100135D02*
X14549938Y-11119182D01*
X14549938Y-11119182D02*
X14559462Y-11157278D01*
X14559462Y-11157278D02*
X14559462Y-11204897D01*
X14559462Y-11204897D02*
X14549938Y-11242992D01*
X14549938Y-11242992D02*
X14540415Y-11262039D01*
X14540415Y-11262039D02*
X14530891Y-11271563D01*
X14530891Y-11271563D02*
X14511843Y-11281087D01*
X14511843Y-11281087D02*
X14492795Y-11281087D01*
X14492795Y-11281087D02*
X14473748Y-11271563D01*
X14473748Y-11271563D02*
X14464224Y-11262039D01*
X14464224Y-11262039D02*
X14454700Y-11242992D01*
X14454700Y-11242992D02*
X14445176Y-11204897D01*
X14445176Y-11204897D02*
X14445176Y-11157278D01*
X14445176Y-11157278D02*
X14454700Y-11119182D01*
X14454700Y-11119182D02*
X14464224Y-11100135D01*
X14464224Y-11100135D02*
X14473748Y-11090611D01*
X14473748Y-11090611D02*
X14492795Y-11081087D01*
X14645176Y-11281087D02*
X14645176Y-11147754D01*
X14645176Y-11166801D02*
X14654700Y-11157278D01*
X14654700Y-11157278D02*
X14673748Y-11147754D01*
X14673748Y-11147754D02*
X14702319Y-11147754D01*
X14702319Y-11147754D02*
X14721367Y-11157278D01*
X14721367Y-11157278D02*
X14730891Y-11176325D01*
X14730891Y-11176325D02*
X14730891Y-11281087D01*
X14730891Y-11176325D02*
X14740415Y-11157278D01*
X14740415Y-11157278D02*
X14759462Y-11147754D01*
X14759462Y-11147754D02*
X14788034Y-11147754D01*
X14788034Y-11147754D02*
X14807081Y-11157278D01*
X14807081Y-11157278D02*
X14816605Y-11176325D01*
X14816605Y-11176325D02*
X14816605Y-11281087D01*
X14911843Y-11281087D02*
X14911843Y-11147754D01*
X14911843Y-11166801D02*
X14921367Y-11157278D01*
X14921367Y-11157278D02*
X14940415Y-11147754D01*
X14940415Y-11147754D02*
X14968986Y-11147754D01*
X14968986Y-11147754D02*
X14988034Y-11157278D01*
X14988034Y-11157278D02*
X14997557Y-11176325D01*
X14997557Y-11176325D02*
X14997557Y-11281087D01*
X14997557Y-11176325D02*
X15007081Y-11157278D01*
X15007081Y-11157278D02*
X15026129Y-11147754D01*
X15026129Y-11147754D02*
X15054700Y-11147754D01*
X15054700Y-11147754D02*
X15073748Y-11157278D01*
X15073748Y-11157278D02*
X15083272Y-11176325D01*
X15083272Y-11176325D02*
X15083272Y-11281087D01*
X15473748Y-11071563D02*
X15302319Y-11328706D01*
X15730891Y-11081087D02*
X15749939Y-11081087D01*
X15749939Y-11081087D02*
X15768986Y-11090611D01*
X15768986Y-11090611D02*
X15778510Y-11100135D01*
X15778510Y-11100135D02*
X15788034Y-11119182D01*
X15788034Y-11119182D02*
X15797558Y-11157278D01*
X15797558Y-11157278D02*
X15797558Y-11204897D01*
X15797558Y-11204897D02*
X15788034Y-11242992D01*
X15788034Y-11242992D02*
X15778510Y-11262039D01*
X15778510Y-11262039D02*
X15768986Y-11271563D01*
X15768986Y-11271563D02*
X15749939Y-11281087D01*
X15749939Y-11281087D02*
X15730891Y-11281087D01*
X15730891Y-11281087D02*
X15711843Y-11271563D01*
X15711843Y-11271563D02*
X15702319Y-11262039D01*
X15702319Y-11262039D02*
X15692796Y-11242992D01*
X15692796Y-11242992D02*
X15683272Y-11204897D01*
X15683272Y-11204897D02*
X15683272Y-11157278D01*
X15683272Y-11157278D02*
X15692796Y-11119182D01*
X15692796Y-11119182D02*
X15702319Y-11100135D01*
X15702319Y-11100135D02*
X15711843Y-11090611D01*
X15711843Y-11090611D02*
X15730891Y-11081087D01*
X15883272Y-11262039D02*
X15892796Y-11271563D01*
X15892796Y-11271563D02*
X15883272Y-11281087D01*
X15883272Y-11281087D02*
X15873748Y-11271563D01*
X15873748Y-11271563D02*
X15883272Y-11262039D01*
X15883272Y-11262039D02*
X15883272Y-11281087D01*
X16016605Y-11081087D02*
X16035653Y-11081087D01*
X16035653Y-11081087D02*
X16054700Y-11090611D01*
X16054700Y-11090611D02*
X16064224Y-11100135D01*
X16064224Y-11100135D02*
X16073748Y-11119182D01*
X16073748Y-11119182D02*
X16083272Y-11157278D01*
X16083272Y-11157278D02*
X16083272Y-11204897D01*
X16083272Y-11204897D02*
X16073748Y-11242992D01*
X16073748Y-11242992D02*
X16064224Y-11262039D01*
X16064224Y-11262039D02*
X16054700Y-11271563D01*
X16054700Y-11271563D02*
X16035653Y-11281087D01*
X16035653Y-11281087D02*
X16016605Y-11281087D01*
X16016605Y-11281087D02*
X15997558Y-11271563D01*
X15997558Y-11271563D02*
X15988034Y-11262039D01*
X15988034Y-11262039D02*
X15978510Y-11242992D01*
X15978510Y-11242992D02*
X15968986Y-11204897D01*
X15968986Y-11204897D02*
X15968986Y-11157278D01*
X15968986Y-11157278D02*
X15978510Y-11119182D01*
X15978510Y-11119182D02*
X15988034Y-11100135D01*
X15988034Y-11100135D02*
X15997558Y-11090611D01*
X15997558Y-11090611D02*
X16016605Y-11081087D01*
X16273748Y-11281087D02*
X16159462Y-11281087D01*
X16216605Y-11281087D02*
X16216605Y-11081087D01*
X16216605Y-11081087D02*
X16197558Y-11109659D01*
X16197558Y-11109659D02*
X16178510Y-11128706D01*
X16178510Y-11128706D02*
X16159462Y-11138230D01*
X16454700Y-11081087D02*
X16359462Y-11081087D01*
X16359462Y-11081087D02*
X16349939Y-11176325D01*
X16349939Y-11176325D02*
X16359462Y-11166801D01*
X16359462Y-11166801D02*
X16378510Y-11157278D01*
X16378510Y-11157278D02*
X16426129Y-11157278D01*
X16426129Y-11157278D02*
X16445177Y-11166801D01*
X16445177Y-11166801D02*
X16454700Y-11176325D01*
X16454700Y-11176325D02*
X16464224Y-11195373D01*
X16464224Y-11195373D02*
X16464224Y-11242992D01*
X16464224Y-11242992D02*
X16454700Y-11262039D01*
X16454700Y-11262039D02*
X16445177Y-11271563D01*
X16445177Y-11271563D02*
X16426129Y-11281087D01*
X16426129Y-11281087D02*
X16378510Y-11281087D01*
X16378510Y-11281087D02*
X16359462Y-11271563D01*
X16359462Y-11271563D02*
X16349939Y-11262039D01*
X16530891Y-11081087D02*
X16664224Y-11081087D01*
X16664224Y-11081087D02*
X16578510Y-11281087D01*
X16730891Y-11081087D02*
X16730891Y-11119182D01*
X16807082Y-11081087D02*
X16807082Y-11119182D01*
X17102320Y-11357278D02*
X17092796Y-11347754D01*
X17092796Y-11347754D02*
X17073748Y-11319182D01*
X17073748Y-11319182D02*
X17064224Y-11300135D01*
X17064224Y-11300135D02*
X17054701Y-11271563D01*
X17054701Y-11271563D02*
X17045177Y-11223944D01*
X17045177Y-11223944D02*
X17045177Y-11185849D01*
X17045177Y-11185849D02*
X17054701Y-11138230D01*
X17054701Y-11138230D02*
X17064224Y-11109659D01*
X17064224Y-11109659D02*
X17073748Y-11090611D01*
X17073748Y-11090611D02*
X17092796Y-11062040D01*
X17092796Y-11062040D02*
X17102320Y-11052516D01*
X17273748Y-11081087D02*
X17178510Y-11081087D01*
X17178510Y-11081087D02*
X17168986Y-11176325D01*
X17168986Y-11176325D02*
X17178510Y-11166801D01*
X17178510Y-11166801D02*
X17197558Y-11157278D01*
X17197558Y-11157278D02*
X17245177Y-11157278D01*
X17245177Y-11157278D02*
X17264224Y-11166801D01*
X17264224Y-11166801D02*
X17273748Y-11176325D01*
X17273748Y-11176325D02*
X17283272Y-11195373D01*
X17283272Y-11195373D02*
X17283272Y-11242992D01*
X17283272Y-11242992D02*
X17273748Y-11262039D01*
X17273748Y-11262039D02*
X17264224Y-11271563D01*
X17264224Y-11271563D02*
X17245177Y-11281087D01*
X17245177Y-11281087D02*
X17197558Y-11281087D01*
X17197558Y-11281087D02*
X17178510Y-11271563D01*
X17178510Y-11271563D02*
X17168986Y-11262039D01*
X17521367Y-11281087D02*
X17521367Y-11081087D01*
X17607082Y-11281087D02*
X17607082Y-11176325D01*
X17607082Y-11176325D02*
X17597558Y-11157278D01*
X17597558Y-11157278D02*
X17578510Y-11147754D01*
X17578510Y-11147754D02*
X17549939Y-11147754D01*
X17549939Y-11147754D02*
X17530891Y-11157278D01*
X17530891Y-11157278D02*
X17521367Y-11166801D01*
X17730891Y-11281087D02*
X17711844Y-11271563D01*
X17711844Y-11271563D02*
X17702320Y-11262039D01*
X17702320Y-11262039D02*
X17692796Y-11242992D01*
X17692796Y-11242992D02*
X17692796Y-11185849D01*
X17692796Y-11185849D02*
X17702320Y-11166801D01*
X17702320Y-11166801D02*
X17711844Y-11157278D01*
X17711844Y-11157278D02*
X17730891Y-11147754D01*
X17730891Y-11147754D02*
X17759463Y-11147754D01*
X17759463Y-11147754D02*
X17778510Y-11157278D01*
X17778510Y-11157278D02*
X17788034Y-11166801D01*
X17788034Y-11166801D02*
X17797558Y-11185849D01*
X17797558Y-11185849D02*
X17797558Y-11242992D01*
X17797558Y-11242992D02*
X17788034Y-11262039D01*
X17788034Y-11262039D02*
X17778510Y-11271563D01*
X17778510Y-11271563D02*
X17759463Y-11281087D01*
X17759463Y-11281087D02*
X17730891Y-11281087D01*
X17911844Y-11281087D02*
X17892796Y-11271563D01*
X17892796Y-11271563D02*
X17883272Y-11252516D01*
X17883272Y-11252516D02*
X17883272Y-11081087D01*
X18064225Y-11271563D02*
X18045177Y-11281087D01*
X18045177Y-11281087D02*
X18007082Y-11281087D01*
X18007082Y-11281087D02*
X17988034Y-11271563D01*
X17988034Y-11271563D02*
X17978510Y-11252516D01*
X17978510Y-11252516D02*
X17978510Y-11176325D01*
X17978510Y-11176325D02*
X17988034Y-11157278D01*
X17988034Y-11157278D02*
X18007082Y-11147754D01*
X18007082Y-11147754D02*
X18045177Y-11147754D01*
X18045177Y-11147754D02*
X18064225Y-11157278D01*
X18064225Y-11157278D02*
X18073748Y-11176325D01*
X18073748Y-11176325D02*
X18073748Y-11195373D01*
X18073748Y-11195373D02*
X17978510Y-11214420D01*
X18149939Y-11271563D02*
X18168986Y-11281087D01*
X18168986Y-11281087D02*
X18207082Y-11281087D01*
X18207082Y-11281087D02*
X18226129Y-11271563D01*
X18226129Y-11271563D02*
X18235653Y-11252516D01*
X18235653Y-11252516D02*
X18235653Y-11242992D01*
X18235653Y-11242992D02*
X18226129Y-11223944D01*
X18226129Y-11223944D02*
X18207082Y-11214420D01*
X18207082Y-11214420D02*
X18178510Y-11214420D01*
X18178510Y-11214420D02*
X18159463Y-11204897D01*
X18159463Y-11204897D02*
X18149939Y-11185849D01*
X18149939Y-11185849D02*
X18149939Y-11176325D01*
X18149939Y-11176325D02*
X18159463Y-11157278D01*
X18159463Y-11157278D02*
X18178510Y-11147754D01*
X18178510Y-11147754D02*
X18207082Y-11147754D01*
X18207082Y-11147754D02*
X18226129Y-11157278D01*
X18302320Y-11357278D02*
X18311844Y-11347754D01*
X18311844Y-11347754D02*
X18330891Y-11319182D01*
X18330891Y-11319182D02*
X18340415Y-11300135D01*
X18340415Y-11300135D02*
X18349939Y-11271563D01*
X18349939Y-11271563D02*
X18359463Y-11223944D01*
X18359463Y-11223944D02*
X18359463Y-11185849D01*
X18359463Y-11185849D02*
X18349939Y-11138230D01*
X18349939Y-11138230D02*
X18340415Y-11109659D01*
X18340415Y-11109659D02*
X18330891Y-11090611D01*
X18330891Y-11090611D02*
X18311844Y-11062040D01*
X18311844Y-11062040D02*
X18302320Y-11052516D01*
D12*
X13527257Y-11453603D02*
G75*
G03*
X13527257Y-11453603I-40000J0D01*
G01*
D10*
X13826129Y-11345087D02*
X13845176Y-11345087D01*
X13845176Y-11345087D02*
X13864224Y-11354611D01*
X13864224Y-11354611D02*
X13873748Y-11364135D01*
X13873748Y-11364135D02*
X13883272Y-11383182D01*
X13883272Y-11383182D02*
X13892795Y-11421278D01*
X13892795Y-11421278D02*
X13892795Y-11468897D01*
X13892795Y-11468897D02*
X13883272Y-11506992D01*
X13883272Y-11506992D02*
X13873748Y-11526039D01*
X13873748Y-11526039D02*
X13864224Y-11535563D01*
X13864224Y-11535563D02*
X13845176Y-11545087D01*
X13845176Y-11545087D02*
X13826129Y-11545087D01*
X13826129Y-11545087D02*
X13807081Y-11535563D01*
X13807081Y-11535563D02*
X13797557Y-11526039D01*
X13797557Y-11526039D02*
X13788034Y-11506992D01*
X13788034Y-11506992D02*
X13778510Y-11468897D01*
X13778510Y-11468897D02*
X13778510Y-11421278D01*
X13778510Y-11421278D02*
X13788034Y-11383182D01*
X13788034Y-11383182D02*
X13797557Y-11364135D01*
X13797557Y-11364135D02*
X13807081Y-11354611D01*
X13807081Y-11354611D02*
X13826129Y-11345087D01*
X13978510Y-11526039D02*
X13988034Y-11535563D01*
X13988034Y-11535563D02*
X13978510Y-11545087D01*
X13978510Y-11545087D02*
X13968986Y-11535563D01*
X13968986Y-11535563D02*
X13978510Y-11526039D01*
X13978510Y-11526039D02*
X13978510Y-11545087D01*
X14102319Y-11430801D02*
X14083272Y-11421278D01*
X14083272Y-11421278D02*
X14073748Y-11411754D01*
X14073748Y-11411754D02*
X14064224Y-11392706D01*
X14064224Y-11392706D02*
X14064224Y-11383182D01*
X14064224Y-11383182D02*
X14073748Y-11364135D01*
X14073748Y-11364135D02*
X14083272Y-11354611D01*
X14083272Y-11354611D02*
X14102319Y-11345087D01*
X14102319Y-11345087D02*
X14140415Y-11345087D01*
X14140415Y-11345087D02*
X14159462Y-11354611D01*
X14159462Y-11354611D02*
X14168986Y-11364135D01*
X14168986Y-11364135D02*
X14178510Y-11383182D01*
X14178510Y-11383182D02*
X14178510Y-11392706D01*
X14178510Y-11392706D02*
X14168986Y-11411754D01*
X14168986Y-11411754D02*
X14159462Y-11421278D01*
X14159462Y-11421278D02*
X14140415Y-11430801D01*
X14140415Y-11430801D02*
X14102319Y-11430801D01*
X14102319Y-11430801D02*
X14083272Y-11440325D01*
X14083272Y-11440325D02*
X14073748Y-11449849D01*
X14073748Y-11449849D02*
X14064224Y-11468897D01*
X14064224Y-11468897D02*
X14064224Y-11506992D01*
X14064224Y-11506992D02*
X14073748Y-11526039D01*
X14073748Y-11526039D02*
X14083272Y-11535563D01*
X14083272Y-11535563D02*
X14102319Y-11545087D01*
X14102319Y-11545087D02*
X14140415Y-11545087D01*
X14140415Y-11545087D02*
X14159462Y-11535563D01*
X14159462Y-11535563D02*
X14168986Y-11526039D01*
X14168986Y-11526039D02*
X14178510Y-11506992D01*
X14178510Y-11506992D02*
X14178510Y-11468897D01*
X14178510Y-11468897D02*
X14168986Y-11449849D01*
X14168986Y-11449849D02*
X14159462Y-11440325D01*
X14159462Y-11440325D02*
X14140415Y-11430801D01*
X14302319Y-11345087D02*
X14321367Y-11345087D01*
X14321367Y-11345087D02*
X14340415Y-11354611D01*
X14340415Y-11354611D02*
X14349938Y-11364135D01*
X14349938Y-11364135D02*
X14359462Y-11383182D01*
X14359462Y-11383182D02*
X14368986Y-11421278D01*
X14368986Y-11421278D02*
X14368986Y-11468897D01*
X14368986Y-11468897D02*
X14359462Y-11506992D01*
X14359462Y-11506992D02*
X14349938Y-11526039D01*
X14349938Y-11526039D02*
X14340415Y-11535563D01*
X14340415Y-11535563D02*
X14321367Y-11545087D01*
X14321367Y-11545087D02*
X14302319Y-11545087D01*
X14302319Y-11545087D02*
X14283272Y-11535563D01*
X14283272Y-11535563D02*
X14273748Y-11526039D01*
X14273748Y-11526039D02*
X14264224Y-11506992D01*
X14264224Y-11506992D02*
X14254700Y-11468897D01*
X14254700Y-11468897D02*
X14254700Y-11421278D01*
X14254700Y-11421278D02*
X14264224Y-11383182D01*
X14264224Y-11383182D02*
X14273748Y-11364135D01*
X14273748Y-11364135D02*
X14283272Y-11354611D01*
X14283272Y-11354611D02*
X14302319Y-11345087D01*
X14492795Y-11345087D02*
X14511843Y-11345087D01*
X14511843Y-11345087D02*
X14530891Y-11354611D01*
X14530891Y-11354611D02*
X14540415Y-11364135D01*
X14540415Y-11364135D02*
X14549938Y-11383182D01*
X14549938Y-11383182D02*
X14559462Y-11421278D01*
X14559462Y-11421278D02*
X14559462Y-11468897D01*
X14559462Y-11468897D02*
X14549938Y-11506992D01*
X14549938Y-11506992D02*
X14540415Y-11526039D01*
X14540415Y-11526039D02*
X14530891Y-11535563D01*
X14530891Y-11535563D02*
X14511843Y-11545087D01*
X14511843Y-11545087D02*
X14492795Y-11545087D01*
X14492795Y-11545087D02*
X14473748Y-11535563D01*
X14473748Y-11535563D02*
X14464224Y-11526039D01*
X14464224Y-11526039D02*
X14454700Y-11506992D01*
X14454700Y-11506992D02*
X14445176Y-11468897D01*
X14445176Y-11468897D02*
X14445176Y-11421278D01*
X14445176Y-11421278D02*
X14454700Y-11383182D01*
X14454700Y-11383182D02*
X14464224Y-11364135D01*
X14464224Y-11364135D02*
X14473748Y-11354611D01*
X14473748Y-11354611D02*
X14492795Y-11345087D01*
X14645176Y-11545087D02*
X14645176Y-11411754D01*
X14645176Y-11430801D02*
X14654700Y-11421278D01*
X14654700Y-11421278D02*
X14673748Y-11411754D01*
X14673748Y-11411754D02*
X14702319Y-11411754D01*
X14702319Y-11411754D02*
X14721367Y-11421278D01*
X14721367Y-11421278D02*
X14730891Y-11440325D01*
X14730891Y-11440325D02*
X14730891Y-11545087D01*
X14730891Y-11440325D02*
X14740415Y-11421278D01*
X14740415Y-11421278D02*
X14759462Y-11411754D01*
X14759462Y-11411754D02*
X14788034Y-11411754D01*
X14788034Y-11411754D02*
X14807081Y-11421278D01*
X14807081Y-11421278D02*
X14816605Y-11440325D01*
X14816605Y-11440325D02*
X14816605Y-11545087D01*
X14911843Y-11545087D02*
X14911843Y-11411754D01*
X14911843Y-11430801D02*
X14921367Y-11421278D01*
X14921367Y-11421278D02*
X14940415Y-11411754D01*
X14940415Y-11411754D02*
X14968986Y-11411754D01*
X14968986Y-11411754D02*
X14988034Y-11421278D01*
X14988034Y-11421278D02*
X14997557Y-11440325D01*
X14997557Y-11440325D02*
X14997557Y-11545087D01*
X14997557Y-11440325D02*
X15007081Y-11421278D01*
X15007081Y-11421278D02*
X15026129Y-11411754D01*
X15026129Y-11411754D02*
X15054700Y-11411754D01*
X15054700Y-11411754D02*
X15073748Y-11421278D01*
X15073748Y-11421278D02*
X15083272Y-11440325D01*
X15083272Y-11440325D02*
X15083272Y-11545087D01*
X15473748Y-11335563D02*
X15302319Y-11592706D01*
X15730891Y-11345087D02*
X15749939Y-11345087D01*
X15749939Y-11345087D02*
X15768986Y-11354611D01*
X15768986Y-11354611D02*
X15778510Y-11364135D01*
X15778510Y-11364135D02*
X15788034Y-11383182D01*
X15788034Y-11383182D02*
X15797558Y-11421278D01*
X15797558Y-11421278D02*
X15797558Y-11468897D01*
X15797558Y-11468897D02*
X15788034Y-11506992D01*
X15788034Y-11506992D02*
X15778510Y-11526039D01*
X15778510Y-11526039D02*
X15768986Y-11535563D01*
X15768986Y-11535563D02*
X15749939Y-11545087D01*
X15749939Y-11545087D02*
X15730891Y-11545087D01*
X15730891Y-11545087D02*
X15711843Y-11535563D01*
X15711843Y-11535563D02*
X15702319Y-11526039D01*
X15702319Y-11526039D02*
X15692796Y-11506992D01*
X15692796Y-11506992D02*
X15683272Y-11468897D01*
X15683272Y-11468897D02*
X15683272Y-11421278D01*
X15683272Y-11421278D02*
X15692796Y-11383182D01*
X15692796Y-11383182D02*
X15702319Y-11364135D01*
X15702319Y-11364135D02*
X15711843Y-11354611D01*
X15711843Y-11354611D02*
X15730891Y-11345087D01*
X15883272Y-11526039D02*
X15892796Y-11535563D01*
X15892796Y-11535563D02*
X15883272Y-11545087D01*
X15883272Y-11545087D02*
X15873748Y-11535563D01*
X15873748Y-11535563D02*
X15883272Y-11526039D01*
X15883272Y-11526039D02*
X15883272Y-11545087D01*
X16016605Y-11345087D02*
X16035653Y-11345087D01*
X16035653Y-11345087D02*
X16054700Y-11354611D01*
X16054700Y-11354611D02*
X16064224Y-11364135D01*
X16064224Y-11364135D02*
X16073748Y-11383182D01*
X16073748Y-11383182D02*
X16083272Y-11421278D01*
X16083272Y-11421278D02*
X16083272Y-11468897D01*
X16083272Y-11468897D02*
X16073748Y-11506992D01*
X16073748Y-11506992D02*
X16064224Y-11526039D01*
X16064224Y-11526039D02*
X16054700Y-11535563D01*
X16054700Y-11535563D02*
X16035653Y-11545087D01*
X16035653Y-11545087D02*
X16016605Y-11545087D01*
X16016605Y-11545087D02*
X15997558Y-11535563D01*
X15997558Y-11535563D02*
X15988034Y-11526039D01*
X15988034Y-11526039D02*
X15978510Y-11506992D01*
X15978510Y-11506992D02*
X15968986Y-11468897D01*
X15968986Y-11468897D02*
X15968986Y-11421278D01*
X15968986Y-11421278D02*
X15978510Y-11383182D01*
X15978510Y-11383182D02*
X15988034Y-11364135D01*
X15988034Y-11364135D02*
X15997558Y-11354611D01*
X15997558Y-11354611D02*
X16016605Y-11345087D01*
X16149939Y-11345087D02*
X16273748Y-11345087D01*
X16273748Y-11345087D02*
X16207081Y-11421278D01*
X16207081Y-11421278D02*
X16235653Y-11421278D01*
X16235653Y-11421278D02*
X16254700Y-11430801D01*
X16254700Y-11430801D02*
X16264224Y-11440325D01*
X16264224Y-11440325D02*
X16273748Y-11459373D01*
X16273748Y-11459373D02*
X16273748Y-11506992D01*
X16273748Y-11506992D02*
X16264224Y-11526039D01*
X16264224Y-11526039D02*
X16254700Y-11535563D01*
X16254700Y-11535563D02*
X16235653Y-11545087D01*
X16235653Y-11545087D02*
X16178510Y-11545087D01*
X16178510Y-11545087D02*
X16159462Y-11535563D01*
X16159462Y-11535563D02*
X16149939Y-11526039D01*
X16464224Y-11545087D02*
X16349939Y-11545087D01*
X16407081Y-11545087D02*
X16407081Y-11345087D01*
X16407081Y-11345087D02*
X16388034Y-11373659D01*
X16388034Y-11373659D02*
X16368986Y-11392706D01*
X16368986Y-11392706D02*
X16349939Y-11402230D01*
X16645177Y-11345087D02*
X16549939Y-11345087D01*
X16549939Y-11345087D02*
X16540415Y-11440325D01*
X16540415Y-11440325D02*
X16549939Y-11430801D01*
X16549939Y-11430801D02*
X16568986Y-11421278D01*
X16568986Y-11421278D02*
X16616605Y-11421278D01*
X16616605Y-11421278D02*
X16635653Y-11430801D01*
X16635653Y-11430801D02*
X16645177Y-11440325D01*
X16645177Y-11440325D02*
X16654700Y-11459373D01*
X16654700Y-11459373D02*
X16654700Y-11506992D01*
X16654700Y-11506992D02*
X16645177Y-11526039D01*
X16645177Y-11526039D02*
X16635653Y-11535563D01*
X16635653Y-11535563D02*
X16616605Y-11545087D01*
X16616605Y-11545087D02*
X16568986Y-11545087D01*
X16568986Y-11545087D02*
X16549939Y-11535563D01*
X16549939Y-11535563D02*
X16540415Y-11526039D01*
X16730891Y-11345087D02*
X16730891Y-11383182D01*
X16807082Y-11345087D02*
X16807082Y-11383182D01*
X17102320Y-11621278D02*
X17092796Y-11611754D01*
X17092796Y-11611754D02*
X17073748Y-11583182D01*
X17073748Y-11583182D02*
X17064224Y-11564135D01*
X17064224Y-11564135D02*
X17054701Y-11535563D01*
X17054701Y-11535563D02*
X17045177Y-11487944D01*
X17045177Y-11487944D02*
X17045177Y-11449849D01*
X17045177Y-11449849D02*
X17054701Y-11402230D01*
X17054701Y-11402230D02*
X17064224Y-11373659D01*
X17064224Y-11373659D02*
X17073748Y-11354611D01*
X17073748Y-11354611D02*
X17092796Y-11326039D01*
X17092796Y-11326039D02*
X17102320Y-11316516D01*
X17168986Y-11364135D02*
X17178510Y-11354611D01*
X17178510Y-11354611D02*
X17197558Y-11345087D01*
X17197558Y-11345087D02*
X17245177Y-11345087D01*
X17245177Y-11345087D02*
X17264224Y-11354611D01*
X17264224Y-11354611D02*
X17273748Y-11364135D01*
X17273748Y-11364135D02*
X17283272Y-11383182D01*
X17283272Y-11383182D02*
X17283272Y-11402230D01*
X17283272Y-11402230D02*
X17273748Y-11430801D01*
X17273748Y-11430801D02*
X17159463Y-11545087D01*
X17159463Y-11545087D02*
X17283272Y-11545087D01*
X17521367Y-11545087D02*
X17521367Y-11345087D01*
X17607082Y-11545087D02*
X17607082Y-11440325D01*
X17607082Y-11440325D02*
X17597558Y-11421278D01*
X17597558Y-11421278D02*
X17578510Y-11411754D01*
X17578510Y-11411754D02*
X17549939Y-11411754D01*
X17549939Y-11411754D02*
X17530891Y-11421278D01*
X17530891Y-11421278D02*
X17521367Y-11430801D01*
X17730891Y-11545087D02*
X17711844Y-11535563D01*
X17711844Y-11535563D02*
X17702320Y-11526039D01*
X17702320Y-11526039D02*
X17692796Y-11506992D01*
X17692796Y-11506992D02*
X17692796Y-11449849D01*
X17692796Y-11449849D02*
X17702320Y-11430801D01*
X17702320Y-11430801D02*
X17711844Y-11421278D01*
X17711844Y-11421278D02*
X17730891Y-11411754D01*
X17730891Y-11411754D02*
X17759463Y-11411754D01*
X17759463Y-11411754D02*
X17778510Y-11421278D01*
X17778510Y-11421278D02*
X17788034Y-11430801D01*
X17788034Y-11430801D02*
X17797558Y-11449849D01*
X17797558Y-11449849D02*
X17797558Y-11506992D01*
X17797558Y-11506992D02*
X17788034Y-11526039D01*
X17788034Y-11526039D02*
X17778510Y-11535563D01*
X17778510Y-11535563D02*
X17759463Y-11545087D01*
X17759463Y-11545087D02*
X17730891Y-11545087D01*
X17911844Y-11545087D02*
X17892796Y-11535563D01*
X17892796Y-11535563D02*
X17883272Y-11516516D01*
X17883272Y-11516516D02*
X17883272Y-11345087D01*
X18064225Y-11535563D02*
X18045177Y-11545087D01*
X18045177Y-11545087D02*
X18007082Y-11545087D01*
X18007082Y-11545087D02*
X17988034Y-11535563D01*
X17988034Y-11535563D02*
X17978510Y-11516516D01*
X17978510Y-11516516D02*
X17978510Y-11440325D01*
X17978510Y-11440325D02*
X17988034Y-11421278D01*
X17988034Y-11421278D02*
X18007082Y-11411754D01*
X18007082Y-11411754D02*
X18045177Y-11411754D01*
X18045177Y-11411754D02*
X18064225Y-11421278D01*
X18064225Y-11421278D02*
X18073748Y-11440325D01*
X18073748Y-11440325D02*
X18073748Y-11459373D01*
X18073748Y-11459373D02*
X17978510Y-11478420D01*
X18149939Y-11535563D02*
X18168986Y-11545087D01*
X18168986Y-11545087D02*
X18207082Y-11545087D01*
X18207082Y-11545087D02*
X18226129Y-11535563D01*
X18226129Y-11535563D02*
X18235653Y-11516516D01*
X18235653Y-11516516D02*
X18235653Y-11506992D01*
X18235653Y-11506992D02*
X18226129Y-11487944D01*
X18226129Y-11487944D02*
X18207082Y-11478420D01*
X18207082Y-11478420D02*
X18178510Y-11478420D01*
X18178510Y-11478420D02*
X18159463Y-11468897D01*
X18159463Y-11468897D02*
X18149939Y-11449849D01*
X18149939Y-11449849D02*
X18149939Y-11440325D01*
X18149939Y-11440325D02*
X18159463Y-11421278D01*
X18159463Y-11421278D02*
X18178510Y-11411754D01*
X18178510Y-11411754D02*
X18207082Y-11411754D01*
X18207082Y-11411754D02*
X18226129Y-11421278D01*
X18302320Y-11621278D02*
X18311844Y-11611754D01*
X18311844Y-11611754D02*
X18330891Y-11583182D01*
X18330891Y-11583182D02*
X18340415Y-11564135D01*
X18340415Y-11564135D02*
X18349939Y-11535563D01*
X18349939Y-11535563D02*
X18359463Y-11487944D01*
X18359463Y-11487944D02*
X18359463Y-11449849D01*
X18359463Y-11449849D02*
X18349939Y-11402230D01*
X18349939Y-11402230D02*
X18340415Y-11373659D01*
X18340415Y-11373659D02*
X18330891Y-11354611D01*
X18330891Y-11354611D02*
X18311844Y-11326039D01*
X18311844Y-11326039D02*
X18302320Y-11316516D01*
D13*
X13477219Y-11667565D02*
X13477219Y-11767641D01*
X13427181Y-11717603D02*
X13527257Y-11717603D01*
D10*
X13892795Y-11809087D02*
X13778510Y-11809087D01*
X13835653Y-11809087D02*
X13835653Y-11609087D01*
X13835653Y-11609087D02*
X13816605Y-11637659D01*
X13816605Y-11637659D02*
X13797557Y-11656706D01*
X13797557Y-11656706D02*
X13778510Y-11666230D01*
X13978510Y-11790039D02*
X13988034Y-11799563D01*
X13988034Y-11799563D02*
X13978510Y-11809087D01*
X13978510Y-11809087D02*
X13968986Y-11799563D01*
X13968986Y-11799563D02*
X13978510Y-11790039D01*
X13978510Y-11790039D02*
X13978510Y-11809087D01*
X14111843Y-11609087D02*
X14130891Y-11609087D01*
X14130891Y-11609087D02*
X14149938Y-11618611D01*
X14149938Y-11618611D02*
X14159462Y-11628135D01*
X14159462Y-11628135D02*
X14168986Y-11647182D01*
X14168986Y-11647182D02*
X14178510Y-11685278D01*
X14178510Y-11685278D02*
X14178510Y-11732897D01*
X14178510Y-11732897D02*
X14168986Y-11770992D01*
X14168986Y-11770992D02*
X14159462Y-11790039D01*
X14159462Y-11790039D02*
X14149938Y-11799563D01*
X14149938Y-11799563D02*
X14130891Y-11809087D01*
X14130891Y-11809087D02*
X14111843Y-11809087D01*
X14111843Y-11809087D02*
X14092795Y-11799563D01*
X14092795Y-11799563D02*
X14083272Y-11790039D01*
X14083272Y-11790039D02*
X14073748Y-11770992D01*
X14073748Y-11770992D02*
X14064224Y-11732897D01*
X14064224Y-11732897D02*
X14064224Y-11685278D01*
X14064224Y-11685278D02*
X14073748Y-11647182D01*
X14073748Y-11647182D02*
X14083272Y-11628135D01*
X14083272Y-11628135D02*
X14092795Y-11618611D01*
X14092795Y-11618611D02*
X14111843Y-11609087D01*
X14302319Y-11609087D02*
X14321367Y-11609087D01*
X14321367Y-11609087D02*
X14340415Y-11618611D01*
X14340415Y-11618611D02*
X14349938Y-11628135D01*
X14349938Y-11628135D02*
X14359462Y-11647182D01*
X14359462Y-11647182D02*
X14368986Y-11685278D01*
X14368986Y-11685278D02*
X14368986Y-11732897D01*
X14368986Y-11732897D02*
X14359462Y-11770992D01*
X14359462Y-11770992D02*
X14349938Y-11790039D01*
X14349938Y-11790039D02*
X14340415Y-11799563D01*
X14340415Y-11799563D02*
X14321367Y-11809087D01*
X14321367Y-11809087D02*
X14302319Y-11809087D01*
X14302319Y-11809087D02*
X14283272Y-11799563D01*
X14283272Y-11799563D02*
X14273748Y-11790039D01*
X14273748Y-11790039D02*
X14264224Y-11770992D01*
X14264224Y-11770992D02*
X14254700Y-11732897D01*
X14254700Y-11732897D02*
X14254700Y-11685278D01*
X14254700Y-11685278D02*
X14264224Y-11647182D01*
X14264224Y-11647182D02*
X14273748Y-11628135D01*
X14273748Y-11628135D02*
X14283272Y-11618611D01*
X14283272Y-11618611D02*
X14302319Y-11609087D01*
X14559462Y-11809087D02*
X14445176Y-11809087D01*
X14502319Y-11809087D02*
X14502319Y-11609087D01*
X14502319Y-11609087D02*
X14483272Y-11637659D01*
X14483272Y-11637659D02*
X14464224Y-11656706D01*
X14464224Y-11656706D02*
X14445176Y-11666230D01*
X14645176Y-11809087D02*
X14645176Y-11675754D01*
X14645176Y-11694801D02*
X14654700Y-11685278D01*
X14654700Y-11685278D02*
X14673748Y-11675754D01*
X14673748Y-11675754D02*
X14702319Y-11675754D01*
X14702319Y-11675754D02*
X14721367Y-11685278D01*
X14721367Y-11685278D02*
X14730891Y-11704325D01*
X14730891Y-11704325D02*
X14730891Y-11809087D01*
X14730891Y-11704325D02*
X14740415Y-11685278D01*
X14740415Y-11685278D02*
X14759462Y-11675754D01*
X14759462Y-11675754D02*
X14788034Y-11675754D01*
X14788034Y-11675754D02*
X14807081Y-11685278D01*
X14807081Y-11685278D02*
X14816605Y-11704325D01*
X14816605Y-11704325D02*
X14816605Y-11809087D01*
X14911843Y-11809087D02*
X14911843Y-11675754D01*
X14911843Y-11694801D02*
X14921367Y-11685278D01*
X14921367Y-11685278D02*
X14940415Y-11675754D01*
X14940415Y-11675754D02*
X14968986Y-11675754D01*
X14968986Y-11675754D02*
X14988034Y-11685278D01*
X14988034Y-11685278D02*
X14997557Y-11704325D01*
X14997557Y-11704325D02*
X14997557Y-11809087D01*
X14997557Y-11704325D02*
X15007081Y-11685278D01*
X15007081Y-11685278D02*
X15026129Y-11675754D01*
X15026129Y-11675754D02*
X15054700Y-11675754D01*
X15054700Y-11675754D02*
X15073748Y-11685278D01*
X15073748Y-11685278D02*
X15083272Y-11704325D01*
X15083272Y-11704325D02*
X15083272Y-11809087D01*
X15473748Y-11599563D02*
X15302319Y-11856706D01*
X15730891Y-11609087D02*
X15749939Y-11609087D01*
X15749939Y-11609087D02*
X15768986Y-11618611D01*
X15768986Y-11618611D02*
X15778510Y-11628135D01*
X15778510Y-11628135D02*
X15788034Y-11647182D01*
X15788034Y-11647182D02*
X15797558Y-11685278D01*
X15797558Y-11685278D02*
X15797558Y-11732897D01*
X15797558Y-11732897D02*
X15788034Y-11770992D01*
X15788034Y-11770992D02*
X15778510Y-11790039D01*
X15778510Y-11790039D02*
X15768986Y-11799563D01*
X15768986Y-11799563D02*
X15749939Y-11809087D01*
X15749939Y-11809087D02*
X15730891Y-11809087D01*
X15730891Y-11809087D02*
X15711843Y-11799563D01*
X15711843Y-11799563D02*
X15702319Y-11790039D01*
X15702319Y-11790039D02*
X15692796Y-11770992D01*
X15692796Y-11770992D02*
X15683272Y-11732897D01*
X15683272Y-11732897D02*
X15683272Y-11685278D01*
X15683272Y-11685278D02*
X15692796Y-11647182D01*
X15692796Y-11647182D02*
X15702319Y-11628135D01*
X15702319Y-11628135D02*
X15711843Y-11618611D01*
X15711843Y-11618611D02*
X15730891Y-11609087D01*
X15883272Y-11790039D02*
X15892796Y-11799563D01*
X15892796Y-11799563D02*
X15883272Y-11809087D01*
X15883272Y-11809087D02*
X15873748Y-11799563D01*
X15873748Y-11799563D02*
X15883272Y-11790039D01*
X15883272Y-11790039D02*
X15883272Y-11809087D01*
X16016605Y-11609087D02*
X16035653Y-11609087D01*
X16035653Y-11609087D02*
X16054700Y-11618611D01*
X16054700Y-11618611D02*
X16064224Y-11628135D01*
X16064224Y-11628135D02*
X16073748Y-11647182D01*
X16073748Y-11647182D02*
X16083272Y-11685278D01*
X16083272Y-11685278D02*
X16083272Y-11732897D01*
X16083272Y-11732897D02*
X16073748Y-11770992D01*
X16073748Y-11770992D02*
X16064224Y-11790039D01*
X16064224Y-11790039D02*
X16054700Y-11799563D01*
X16054700Y-11799563D02*
X16035653Y-11809087D01*
X16035653Y-11809087D02*
X16016605Y-11809087D01*
X16016605Y-11809087D02*
X15997558Y-11799563D01*
X15997558Y-11799563D02*
X15988034Y-11790039D01*
X15988034Y-11790039D02*
X15978510Y-11770992D01*
X15978510Y-11770992D02*
X15968986Y-11732897D01*
X15968986Y-11732897D02*
X15968986Y-11685278D01*
X15968986Y-11685278D02*
X15978510Y-11647182D01*
X15978510Y-11647182D02*
X15988034Y-11628135D01*
X15988034Y-11628135D02*
X15997558Y-11618611D01*
X15997558Y-11618611D02*
X16016605Y-11609087D01*
X16149939Y-11609087D02*
X16273748Y-11609087D01*
X16273748Y-11609087D02*
X16207081Y-11685278D01*
X16207081Y-11685278D02*
X16235653Y-11685278D01*
X16235653Y-11685278D02*
X16254700Y-11694801D01*
X16254700Y-11694801D02*
X16264224Y-11704325D01*
X16264224Y-11704325D02*
X16273748Y-11723373D01*
X16273748Y-11723373D02*
X16273748Y-11770992D01*
X16273748Y-11770992D02*
X16264224Y-11790039D01*
X16264224Y-11790039D02*
X16254700Y-11799563D01*
X16254700Y-11799563D02*
X16235653Y-11809087D01*
X16235653Y-11809087D02*
X16178510Y-11809087D01*
X16178510Y-11809087D02*
X16159462Y-11799563D01*
X16159462Y-11799563D02*
X16149939Y-11790039D01*
X16368986Y-11809087D02*
X16407081Y-11809087D01*
X16407081Y-11809087D02*
X16426129Y-11799563D01*
X16426129Y-11799563D02*
X16435653Y-11790039D01*
X16435653Y-11790039D02*
X16454700Y-11761468D01*
X16454700Y-11761468D02*
X16464224Y-11723373D01*
X16464224Y-11723373D02*
X16464224Y-11647182D01*
X16464224Y-11647182D02*
X16454700Y-11628135D01*
X16454700Y-11628135D02*
X16445177Y-11618611D01*
X16445177Y-11618611D02*
X16426129Y-11609087D01*
X16426129Y-11609087D02*
X16388034Y-11609087D01*
X16388034Y-11609087D02*
X16368986Y-11618611D01*
X16368986Y-11618611D02*
X16359462Y-11628135D01*
X16359462Y-11628135D02*
X16349939Y-11647182D01*
X16349939Y-11647182D02*
X16349939Y-11694801D01*
X16349939Y-11694801D02*
X16359462Y-11713849D01*
X16359462Y-11713849D02*
X16368986Y-11723373D01*
X16368986Y-11723373D02*
X16388034Y-11732897D01*
X16388034Y-11732897D02*
X16426129Y-11732897D01*
X16426129Y-11732897D02*
X16445177Y-11723373D01*
X16445177Y-11723373D02*
X16454700Y-11713849D01*
X16454700Y-11713849D02*
X16464224Y-11694801D01*
X16635653Y-11675754D02*
X16635653Y-11809087D01*
X16588034Y-11599563D02*
X16540415Y-11742420D01*
X16540415Y-11742420D02*
X16664224Y-11742420D01*
X16730891Y-11609087D02*
X16730891Y-11647182D01*
X16807082Y-11609087D02*
X16807082Y-11647182D01*
X17102320Y-11885278D02*
X17092796Y-11875754D01*
X17092796Y-11875754D02*
X17073748Y-11847182D01*
X17073748Y-11847182D02*
X17064224Y-11828135D01*
X17064224Y-11828135D02*
X17054701Y-11799563D01*
X17054701Y-11799563D02*
X17045177Y-11751944D01*
X17045177Y-11751944D02*
X17045177Y-11713849D01*
X17045177Y-11713849D02*
X17054701Y-11666230D01*
X17054701Y-11666230D02*
X17064224Y-11637659D01*
X17064224Y-11637659D02*
X17073748Y-11618611D01*
X17073748Y-11618611D02*
X17092796Y-11590039D01*
X17092796Y-11590039D02*
X17102320Y-11580516D01*
X17264224Y-11675754D02*
X17264224Y-11809087D01*
X17216605Y-11599563D02*
X17168986Y-11742420D01*
X17168986Y-11742420D02*
X17292796Y-11742420D01*
X17521367Y-11809087D02*
X17521367Y-11609087D01*
X17607082Y-11809087D02*
X17607082Y-11704325D01*
X17607082Y-11704325D02*
X17597558Y-11685278D01*
X17597558Y-11685278D02*
X17578510Y-11675754D01*
X17578510Y-11675754D02*
X17549939Y-11675754D01*
X17549939Y-11675754D02*
X17530891Y-11685278D01*
X17530891Y-11685278D02*
X17521367Y-11694801D01*
X17730891Y-11809087D02*
X17711844Y-11799563D01*
X17711844Y-11799563D02*
X17702320Y-11790039D01*
X17702320Y-11790039D02*
X17692796Y-11770992D01*
X17692796Y-11770992D02*
X17692796Y-11713849D01*
X17692796Y-11713849D02*
X17702320Y-11694801D01*
X17702320Y-11694801D02*
X17711844Y-11685278D01*
X17711844Y-11685278D02*
X17730891Y-11675754D01*
X17730891Y-11675754D02*
X17759463Y-11675754D01*
X17759463Y-11675754D02*
X17778510Y-11685278D01*
X17778510Y-11685278D02*
X17788034Y-11694801D01*
X17788034Y-11694801D02*
X17797558Y-11713849D01*
X17797558Y-11713849D02*
X17797558Y-11770992D01*
X17797558Y-11770992D02*
X17788034Y-11790039D01*
X17788034Y-11790039D02*
X17778510Y-11799563D01*
X17778510Y-11799563D02*
X17759463Y-11809087D01*
X17759463Y-11809087D02*
X17730891Y-11809087D01*
X17911844Y-11809087D02*
X17892796Y-11799563D01*
X17892796Y-11799563D02*
X17883272Y-11780516D01*
X17883272Y-11780516D02*
X17883272Y-11609087D01*
X18064225Y-11799563D02*
X18045177Y-11809087D01*
X18045177Y-11809087D02*
X18007082Y-11809087D01*
X18007082Y-11809087D02*
X17988034Y-11799563D01*
X17988034Y-11799563D02*
X17978510Y-11780516D01*
X17978510Y-11780516D02*
X17978510Y-11704325D01*
X17978510Y-11704325D02*
X17988034Y-11685278D01*
X17988034Y-11685278D02*
X18007082Y-11675754D01*
X18007082Y-11675754D02*
X18045177Y-11675754D01*
X18045177Y-11675754D02*
X18064225Y-11685278D01*
X18064225Y-11685278D02*
X18073748Y-11704325D01*
X18073748Y-11704325D02*
X18073748Y-11723373D01*
X18073748Y-11723373D02*
X17978510Y-11742420D01*
X18149939Y-11799563D02*
X18168986Y-11809087D01*
X18168986Y-11809087D02*
X18207082Y-11809087D01*
X18207082Y-11809087D02*
X18226129Y-11799563D01*
X18226129Y-11799563D02*
X18235653Y-11780516D01*
X18235653Y-11780516D02*
X18235653Y-11770992D01*
X18235653Y-11770992D02*
X18226129Y-11751944D01*
X18226129Y-11751944D02*
X18207082Y-11742420D01*
X18207082Y-11742420D02*
X18178510Y-11742420D01*
X18178510Y-11742420D02*
X18159463Y-11732897D01*
X18159463Y-11732897D02*
X18149939Y-11713849D01*
X18149939Y-11713849D02*
X18149939Y-11704325D01*
X18149939Y-11704325D02*
X18159463Y-11685278D01*
X18159463Y-11685278D02*
X18178510Y-11675754D01*
X18178510Y-11675754D02*
X18207082Y-11675754D01*
X18207082Y-11675754D02*
X18226129Y-11685278D01*
X18302320Y-11885278D02*
X18311844Y-11875754D01*
X18311844Y-11875754D02*
X18330891Y-11847182D01*
X18330891Y-11847182D02*
X18340415Y-11828135D01*
X18340415Y-11828135D02*
X18349939Y-11799563D01*
X18349939Y-11799563D02*
X18359463Y-11751944D01*
X18359463Y-11751944D02*
X18359463Y-11713849D01*
X18359463Y-11713849D02*
X18349939Y-11666230D01*
X18349939Y-11666230D02*
X18340415Y-11637659D01*
X18340415Y-11637659D02*
X18330891Y-11618611D01*
X18330891Y-11618611D02*
X18311844Y-11590039D01*
X18311844Y-11590039D02*
X18302320Y-11580516D01*
X13497968Y-12052315D02*
X13497968Y-11910892D01*
X13356545Y-11910892D01*
X13356545Y-12052315D01*
X13497968Y-12052315D01*
X13892795Y-12073087D02*
X13778510Y-12073087D01*
X13835653Y-12073087D02*
X13835653Y-11873087D01*
X13835653Y-11873087D02*
X13816605Y-11901659D01*
X13816605Y-11901659D02*
X13797557Y-11920706D01*
X13797557Y-11920706D02*
X13778510Y-11930230D01*
X13959462Y-11873087D02*
X14083272Y-11873087D01*
X14083272Y-11873087D02*
X14016605Y-11949278D01*
X14016605Y-11949278D02*
X14045176Y-11949278D01*
X14045176Y-11949278D02*
X14064224Y-11958801D01*
X14064224Y-11958801D02*
X14073748Y-11968325D01*
X14073748Y-11968325D02*
X14083272Y-11987373D01*
X14083272Y-11987373D02*
X14083272Y-12034992D01*
X14083272Y-12034992D02*
X14073748Y-12054039D01*
X14073748Y-12054039D02*
X14064224Y-12063563D01*
X14064224Y-12063563D02*
X14045176Y-12073087D01*
X14045176Y-12073087D02*
X13988034Y-12073087D01*
X13988034Y-12073087D02*
X13968986Y-12063563D01*
X13968986Y-12063563D02*
X13959462Y-12054039D01*
X14168986Y-12054039D02*
X14178510Y-12063563D01*
X14178510Y-12063563D02*
X14168986Y-12073087D01*
X14168986Y-12073087D02*
X14159462Y-12063563D01*
X14159462Y-12063563D02*
X14168986Y-12054039D01*
X14168986Y-12054039D02*
X14168986Y-12073087D01*
X14302319Y-11873087D02*
X14321367Y-11873087D01*
X14321367Y-11873087D02*
X14340415Y-11882611D01*
X14340415Y-11882611D02*
X14349938Y-11892135D01*
X14349938Y-11892135D02*
X14359462Y-11911182D01*
X14359462Y-11911182D02*
X14368986Y-11949278D01*
X14368986Y-11949278D02*
X14368986Y-11996897D01*
X14368986Y-11996897D02*
X14359462Y-12034992D01*
X14359462Y-12034992D02*
X14349938Y-12054039D01*
X14349938Y-12054039D02*
X14340415Y-12063563D01*
X14340415Y-12063563D02*
X14321367Y-12073087D01*
X14321367Y-12073087D02*
X14302319Y-12073087D01*
X14302319Y-12073087D02*
X14283272Y-12063563D01*
X14283272Y-12063563D02*
X14273748Y-12054039D01*
X14273748Y-12054039D02*
X14264224Y-12034992D01*
X14264224Y-12034992D02*
X14254700Y-11996897D01*
X14254700Y-11996897D02*
X14254700Y-11949278D01*
X14254700Y-11949278D02*
X14264224Y-11911182D01*
X14264224Y-11911182D02*
X14273748Y-11892135D01*
X14273748Y-11892135D02*
X14283272Y-11882611D01*
X14283272Y-11882611D02*
X14302319Y-11873087D01*
X14549938Y-11873087D02*
X14454700Y-11873087D01*
X14454700Y-11873087D02*
X14445176Y-11968325D01*
X14445176Y-11968325D02*
X14454700Y-11958801D01*
X14454700Y-11958801D02*
X14473748Y-11949278D01*
X14473748Y-11949278D02*
X14521367Y-11949278D01*
X14521367Y-11949278D02*
X14540415Y-11958801D01*
X14540415Y-11958801D02*
X14549938Y-11968325D01*
X14549938Y-11968325D02*
X14559462Y-11987373D01*
X14559462Y-11987373D02*
X14559462Y-12034992D01*
X14559462Y-12034992D02*
X14549938Y-12054039D01*
X14549938Y-12054039D02*
X14540415Y-12063563D01*
X14540415Y-12063563D02*
X14521367Y-12073087D01*
X14521367Y-12073087D02*
X14473748Y-12073087D01*
X14473748Y-12073087D02*
X14454700Y-12063563D01*
X14454700Y-12063563D02*
X14445176Y-12054039D01*
X14683272Y-11873087D02*
X14702319Y-11873087D01*
X14702319Y-11873087D02*
X14721367Y-11882611D01*
X14721367Y-11882611D02*
X14730891Y-11892135D01*
X14730891Y-11892135D02*
X14740415Y-11911182D01*
X14740415Y-11911182D02*
X14749938Y-11949278D01*
X14749938Y-11949278D02*
X14749938Y-11996897D01*
X14749938Y-11996897D02*
X14740415Y-12034992D01*
X14740415Y-12034992D02*
X14730891Y-12054039D01*
X14730891Y-12054039D02*
X14721367Y-12063563D01*
X14721367Y-12063563D02*
X14702319Y-12073087D01*
X14702319Y-12073087D02*
X14683272Y-12073087D01*
X14683272Y-12073087D02*
X14664224Y-12063563D01*
X14664224Y-12063563D02*
X14654700Y-12054039D01*
X14654700Y-12054039D02*
X14645176Y-12034992D01*
X14645176Y-12034992D02*
X14635653Y-11996897D01*
X14635653Y-11996897D02*
X14635653Y-11949278D01*
X14635653Y-11949278D02*
X14645176Y-11911182D01*
X14645176Y-11911182D02*
X14654700Y-11892135D01*
X14654700Y-11892135D02*
X14664224Y-11882611D01*
X14664224Y-11882611D02*
X14683272Y-11873087D01*
X14835653Y-12073087D02*
X14835653Y-11939754D01*
X14835653Y-11958801D02*
X14845176Y-11949278D01*
X14845176Y-11949278D02*
X14864224Y-11939754D01*
X14864224Y-11939754D02*
X14892796Y-11939754D01*
X14892796Y-11939754D02*
X14911843Y-11949278D01*
X14911843Y-11949278D02*
X14921367Y-11968325D01*
X14921367Y-11968325D02*
X14921367Y-12073087D01*
X14921367Y-11968325D02*
X14930891Y-11949278D01*
X14930891Y-11949278D02*
X14949938Y-11939754D01*
X14949938Y-11939754D02*
X14978510Y-11939754D01*
X14978510Y-11939754D02*
X14997557Y-11949278D01*
X14997557Y-11949278D02*
X15007081Y-11968325D01*
X15007081Y-11968325D02*
X15007081Y-12073087D01*
X15102319Y-12073087D02*
X15102319Y-11939754D01*
X15102319Y-11958801D02*
X15111843Y-11949278D01*
X15111843Y-11949278D02*
X15130891Y-11939754D01*
X15130891Y-11939754D02*
X15159462Y-11939754D01*
X15159462Y-11939754D02*
X15178510Y-11949278D01*
X15178510Y-11949278D02*
X15188034Y-11968325D01*
X15188034Y-11968325D02*
X15188034Y-12073087D01*
X15188034Y-11968325D02*
X15197557Y-11949278D01*
X15197557Y-11949278D02*
X15216605Y-11939754D01*
X15216605Y-11939754D02*
X15245176Y-11939754D01*
X15245176Y-11939754D02*
X15264224Y-11949278D01*
X15264224Y-11949278D02*
X15273748Y-11968325D01*
X15273748Y-11968325D02*
X15273748Y-12073087D01*
X15664224Y-11863563D02*
X15492796Y-12120706D01*
X15921367Y-11873087D02*
X15940415Y-11873087D01*
X15940415Y-11873087D02*
X15959462Y-11882611D01*
X15959462Y-11882611D02*
X15968986Y-11892135D01*
X15968986Y-11892135D02*
X15978510Y-11911182D01*
X15978510Y-11911182D02*
X15988034Y-11949278D01*
X15988034Y-11949278D02*
X15988034Y-11996897D01*
X15988034Y-11996897D02*
X15978510Y-12034992D01*
X15978510Y-12034992D02*
X15968986Y-12054039D01*
X15968986Y-12054039D02*
X15959462Y-12063563D01*
X15959462Y-12063563D02*
X15940415Y-12073087D01*
X15940415Y-12073087D02*
X15921367Y-12073087D01*
X15921367Y-12073087D02*
X15902319Y-12063563D01*
X15902319Y-12063563D02*
X15892796Y-12054039D01*
X15892796Y-12054039D02*
X15883272Y-12034992D01*
X15883272Y-12034992D02*
X15873748Y-11996897D01*
X15873748Y-11996897D02*
X15873748Y-11949278D01*
X15873748Y-11949278D02*
X15883272Y-11911182D01*
X15883272Y-11911182D02*
X15892796Y-11892135D01*
X15892796Y-11892135D02*
X15902319Y-11882611D01*
X15902319Y-11882611D02*
X15921367Y-11873087D01*
X16073748Y-12054039D02*
X16083272Y-12063563D01*
X16083272Y-12063563D02*
X16073748Y-12073087D01*
X16073748Y-12073087D02*
X16064224Y-12063563D01*
X16064224Y-12063563D02*
X16073748Y-12054039D01*
X16073748Y-12054039D02*
X16073748Y-12073087D01*
X16264224Y-11873087D02*
X16168986Y-11873087D01*
X16168986Y-11873087D02*
X16159462Y-11968325D01*
X16159462Y-11968325D02*
X16168986Y-11958801D01*
X16168986Y-11958801D02*
X16188034Y-11949278D01*
X16188034Y-11949278D02*
X16235653Y-11949278D01*
X16235653Y-11949278D02*
X16254700Y-11958801D01*
X16254700Y-11958801D02*
X16264224Y-11968325D01*
X16264224Y-11968325D02*
X16273748Y-11987373D01*
X16273748Y-11987373D02*
X16273748Y-12034992D01*
X16273748Y-12034992D02*
X16264224Y-12054039D01*
X16264224Y-12054039D02*
X16254700Y-12063563D01*
X16254700Y-12063563D02*
X16235653Y-12073087D01*
X16235653Y-12073087D02*
X16188034Y-12073087D01*
X16188034Y-12073087D02*
X16168986Y-12063563D01*
X16168986Y-12063563D02*
X16159462Y-12054039D01*
X16464224Y-12073087D02*
X16349939Y-12073087D01*
X16407081Y-12073087D02*
X16407081Y-11873087D01*
X16407081Y-11873087D02*
X16388034Y-11901659D01*
X16388034Y-11901659D02*
X16368986Y-11920706D01*
X16368986Y-11920706D02*
X16349939Y-11930230D01*
X16530891Y-11873087D02*
X16654700Y-11873087D01*
X16654700Y-11873087D02*
X16588034Y-11949278D01*
X16588034Y-11949278D02*
X16616605Y-11949278D01*
X16616605Y-11949278D02*
X16635653Y-11958801D01*
X16635653Y-11958801D02*
X16645177Y-11968325D01*
X16645177Y-11968325D02*
X16654700Y-11987373D01*
X16654700Y-11987373D02*
X16654700Y-12034992D01*
X16654700Y-12034992D02*
X16645177Y-12054039D01*
X16645177Y-12054039D02*
X16635653Y-12063563D01*
X16635653Y-12063563D02*
X16616605Y-12073087D01*
X16616605Y-12073087D02*
X16559462Y-12073087D01*
X16559462Y-12073087D02*
X16540415Y-12063563D01*
X16540415Y-12063563D02*
X16530891Y-12054039D01*
X16768986Y-11958801D02*
X16749939Y-11949278D01*
X16749939Y-11949278D02*
X16740415Y-11939754D01*
X16740415Y-11939754D02*
X16730891Y-11920706D01*
X16730891Y-11920706D02*
X16730891Y-11911182D01*
X16730891Y-11911182D02*
X16740415Y-11892135D01*
X16740415Y-11892135D02*
X16749939Y-11882611D01*
X16749939Y-11882611D02*
X16768986Y-11873087D01*
X16768986Y-11873087D02*
X16807082Y-11873087D01*
X16807082Y-11873087D02*
X16826129Y-11882611D01*
X16826129Y-11882611D02*
X16835653Y-11892135D01*
X16835653Y-11892135D02*
X16845177Y-11911182D01*
X16845177Y-11911182D02*
X16845177Y-11920706D01*
X16845177Y-11920706D02*
X16835653Y-11939754D01*
X16835653Y-11939754D02*
X16826129Y-11949278D01*
X16826129Y-11949278D02*
X16807082Y-11958801D01*
X16807082Y-11958801D02*
X16768986Y-11958801D01*
X16768986Y-11958801D02*
X16749939Y-11968325D01*
X16749939Y-11968325D02*
X16740415Y-11977849D01*
X16740415Y-11977849D02*
X16730891Y-11996897D01*
X16730891Y-11996897D02*
X16730891Y-12034992D01*
X16730891Y-12034992D02*
X16740415Y-12054039D01*
X16740415Y-12054039D02*
X16749939Y-12063563D01*
X16749939Y-12063563D02*
X16768986Y-12073087D01*
X16768986Y-12073087D02*
X16807082Y-12073087D01*
X16807082Y-12073087D02*
X16826129Y-12063563D01*
X16826129Y-12063563D02*
X16835653Y-12054039D01*
X16835653Y-12054039D02*
X16845177Y-12034992D01*
X16845177Y-12034992D02*
X16845177Y-11996897D01*
X16845177Y-11996897D02*
X16835653Y-11977849D01*
X16835653Y-11977849D02*
X16826129Y-11968325D01*
X16826129Y-11968325D02*
X16807082Y-11958801D01*
X16921367Y-11873087D02*
X16921367Y-11911182D01*
X16997558Y-11873087D02*
X16997558Y-11911182D01*
X17292796Y-12149278D02*
X17283272Y-12139754D01*
X17283272Y-12139754D02*
X17264224Y-12111182D01*
X17264224Y-12111182D02*
X17254701Y-12092135D01*
X17254701Y-12092135D02*
X17245177Y-12063563D01*
X17245177Y-12063563D02*
X17235653Y-12015944D01*
X17235653Y-12015944D02*
X17235653Y-11977849D01*
X17235653Y-11977849D02*
X17245177Y-11930230D01*
X17245177Y-11930230D02*
X17254701Y-11901659D01*
X17254701Y-11901659D02*
X17264224Y-11882611D01*
X17264224Y-11882611D02*
X17283272Y-11854039D01*
X17283272Y-11854039D02*
X17292796Y-11844516D01*
X17473748Y-12073087D02*
X17359463Y-12073087D01*
X17416605Y-12073087D02*
X17416605Y-11873087D01*
X17416605Y-11873087D02*
X17397558Y-11901659D01*
X17397558Y-11901659D02*
X17378510Y-11920706D01*
X17378510Y-11920706D02*
X17359463Y-11930230D01*
X17711844Y-12073087D02*
X17711844Y-11873087D01*
X17797558Y-12073087D02*
X17797558Y-11968325D01*
X17797558Y-11968325D02*
X17788034Y-11949278D01*
X17788034Y-11949278D02*
X17768986Y-11939754D01*
X17768986Y-11939754D02*
X17740415Y-11939754D01*
X17740415Y-11939754D02*
X17721367Y-11949278D01*
X17721367Y-11949278D02*
X17711844Y-11958801D01*
X17921367Y-12073087D02*
X17902320Y-12063563D01*
X17902320Y-12063563D02*
X17892796Y-12054039D01*
X17892796Y-12054039D02*
X17883272Y-12034992D01*
X17883272Y-12034992D02*
X17883272Y-11977849D01*
X17883272Y-11977849D02*
X17892796Y-11958801D01*
X17892796Y-11958801D02*
X17902320Y-11949278D01*
X17902320Y-11949278D02*
X17921367Y-11939754D01*
X17921367Y-11939754D02*
X17949939Y-11939754D01*
X17949939Y-11939754D02*
X17968986Y-11949278D01*
X17968986Y-11949278D02*
X17978510Y-11958801D01*
X17978510Y-11958801D02*
X17988034Y-11977849D01*
X17988034Y-11977849D02*
X17988034Y-12034992D01*
X17988034Y-12034992D02*
X17978510Y-12054039D01*
X17978510Y-12054039D02*
X17968986Y-12063563D01*
X17968986Y-12063563D02*
X17949939Y-12073087D01*
X17949939Y-12073087D02*
X17921367Y-12073087D01*
X18102320Y-12073087D02*
X18083272Y-12063563D01*
X18083272Y-12063563D02*
X18073748Y-12044516D01*
X18073748Y-12044516D02*
X18073748Y-11873087D01*
X18254701Y-12063563D02*
X18235653Y-12073087D01*
X18235653Y-12073087D02*
X18197558Y-12073087D01*
X18197558Y-12073087D02*
X18178510Y-12063563D01*
X18178510Y-12063563D02*
X18168986Y-12044516D01*
X18168986Y-12044516D02*
X18168986Y-11968325D01*
X18168986Y-11968325D02*
X18178510Y-11949278D01*
X18178510Y-11949278D02*
X18197558Y-11939754D01*
X18197558Y-11939754D02*
X18235653Y-11939754D01*
X18235653Y-11939754D02*
X18254701Y-11949278D01*
X18254701Y-11949278D02*
X18264225Y-11968325D01*
X18264225Y-11968325D02*
X18264225Y-11987373D01*
X18264225Y-11987373D02*
X18168986Y-12006420D01*
X18330891Y-12149278D02*
X18340415Y-12139754D01*
X18340415Y-12139754D02*
X18359463Y-12111182D01*
X18359463Y-12111182D02*
X18368986Y-12092135D01*
X18368986Y-12092135D02*
X18378510Y-12063563D01*
X18378510Y-12063563D02*
X18388034Y-12015944D01*
X18388034Y-12015944D02*
X18388034Y-11977849D01*
X18388034Y-11977849D02*
X18378510Y-11930230D01*
X18378510Y-11930230D02*
X18368986Y-11901659D01*
X18368986Y-11901659D02*
X18359463Y-11882611D01*
X18359463Y-11882611D02*
X18340415Y-11854039D01*
X18340415Y-11854039D02*
X18330891Y-11844516D01*
M02*
