%TF.GenerationSoftware,KiCad,Pcbnew,7.0.8*%
%TF.CreationDate,2023-11-03T07:12:57-06:00*%
%TF.ProjectId,Pinecil_LEDring,50696e65-6369-46c5-9f4c-454472696e67,rev?*%
%TF.SameCoordinates,Original*%
%TF.FileFunction,Drillmap*%
%TF.FilePolarity,Positive*%
%FSLAX45Y45*%
G04 Gerber Fmt 4.5, Leading zero omitted, Abs format (unit mm)*
G04 Created by KiCad (PCBNEW 7.0.8) date 2023-11-03 07:12:57*
%MOMM*%
%LPD*%
G01*
G04 APERTURE LIST*
%ADD10C,0.200000*%
G04 APERTURE END LIST*
D10*
X13788034Y-10861087D02*
X13788034Y-10661087D01*
X13788034Y-10661087D02*
X13835653Y-10661087D01*
X13835653Y-10661087D02*
X13864224Y-10670611D01*
X13864224Y-10670611D02*
X13883272Y-10689659D01*
X13883272Y-10689659D02*
X13892795Y-10708706D01*
X13892795Y-10708706D02*
X13902319Y-10746801D01*
X13902319Y-10746801D02*
X13902319Y-10775373D01*
X13902319Y-10775373D02*
X13892795Y-10813468D01*
X13892795Y-10813468D02*
X13883272Y-10832516D01*
X13883272Y-10832516D02*
X13864224Y-10851563D01*
X13864224Y-10851563D02*
X13835653Y-10861087D01*
X13835653Y-10861087D02*
X13788034Y-10861087D01*
X13988034Y-10861087D02*
X13988034Y-10727754D01*
X13988034Y-10765849D02*
X13997557Y-10746801D01*
X13997557Y-10746801D02*
X14007081Y-10737278D01*
X14007081Y-10737278D02*
X14026129Y-10727754D01*
X14026129Y-10727754D02*
X14045176Y-10727754D01*
X14111843Y-10861087D02*
X14111843Y-10727754D01*
X14111843Y-10661087D02*
X14102319Y-10670611D01*
X14102319Y-10670611D02*
X14111843Y-10680135D01*
X14111843Y-10680135D02*
X14121367Y-10670611D01*
X14121367Y-10670611D02*
X14111843Y-10661087D01*
X14111843Y-10661087D02*
X14111843Y-10680135D01*
X14235653Y-10861087D02*
X14216605Y-10851563D01*
X14216605Y-10851563D02*
X14207081Y-10832516D01*
X14207081Y-10832516D02*
X14207081Y-10661087D01*
X14340414Y-10861087D02*
X14321367Y-10851563D01*
X14321367Y-10851563D02*
X14311843Y-10832516D01*
X14311843Y-10832516D02*
X14311843Y-10661087D01*
X14568986Y-10861087D02*
X14568986Y-10661087D01*
X14568986Y-10661087D02*
X14635653Y-10803944D01*
X14635653Y-10803944D02*
X14702319Y-10661087D01*
X14702319Y-10661087D02*
X14702319Y-10861087D01*
X14883272Y-10861087D02*
X14883272Y-10756325D01*
X14883272Y-10756325D02*
X14873748Y-10737278D01*
X14873748Y-10737278D02*
X14854700Y-10727754D01*
X14854700Y-10727754D02*
X14816605Y-10727754D01*
X14816605Y-10727754D02*
X14797557Y-10737278D01*
X14883272Y-10851563D02*
X14864224Y-10861087D01*
X14864224Y-10861087D02*
X14816605Y-10861087D01*
X14816605Y-10861087D02*
X14797557Y-10851563D01*
X14797557Y-10851563D02*
X14788034Y-10832516D01*
X14788034Y-10832516D02*
X14788034Y-10813468D01*
X14788034Y-10813468D02*
X14797557Y-10794421D01*
X14797557Y-10794421D02*
X14816605Y-10784897D01*
X14816605Y-10784897D02*
X14864224Y-10784897D01*
X14864224Y-10784897D02*
X14883272Y-10775373D01*
X14978510Y-10727754D02*
X14978510Y-10927754D01*
X14978510Y-10737278D02*
X14997557Y-10727754D01*
X14997557Y-10727754D02*
X15035653Y-10727754D01*
X15035653Y-10727754D02*
X15054700Y-10737278D01*
X15054700Y-10737278D02*
X15064224Y-10746801D01*
X15064224Y-10746801D02*
X15073748Y-10765849D01*
X15073748Y-10765849D02*
X15073748Y-10822992D01*
X15073748Y-10822992D02*
X15064224Y-10842040D01*
X15064224Y-10842040D02*
X15054700Y-10851563D01*
X15054700Y-10851563D02*
X15035653Y-10861087D01*
X15035653Y-10861087D02*
X14997557Y-10861087D01*
X14997557Y-10861087D02*
X14978510Y-10851563D01*
X15159462Y-10842040D02*
X15168986Y-10851563D01*
X15168986Y-10851563D02*
X15159462Y-10861087D01*
X15159462Y-10861087D02*
X15149938Y-10851563D01*
X15149938Y-10851563D02*
X15159462Y-10842040D01*
X15159462Y-10842040D02*
X15159462Y-10861087D01*
X15159462Y-10737278D02*
X15168986Y-10746801D01*
X15168986Y-10746801D02*
X15159462Y-10756325D01*
X15159462Y-10756325D02*
X15149938Y-10746801D01*
X15149938Y-10746801D02*
X15159462Y-10737278D01*
X15159462Y-10737278D02*
X15159462Y-10756325D01*
M02*
