%TF.GenerationSoftware,KiCad,Pcbnew,(6.0.6)*%
%TF.CreationDate,2022-12-21T10:33:16-07:00*%
%TF.ProjectId,Pinecil_LEDring,50696e65-6369-46c5-9f4c-454472696e67,rev?*%
%TF.SameCoordinates,Original*%
%TF.FileFunction,Copper,L1,Top*%
%TF.FilePolarity,Positive*%
%FSLAX46Y46*%
G04 Gerber Fmt 4.6, Leading zero omitted, Abs format (unit mm)*
G04 Created by KiCad (PCBNEW (6.0.6)) date 2022-12-21 10:33:16*
%MOMM*%
%LPD*%
G01*
G04 APERTURE LIST*
G04 Aperture macros list*
%AMHorizOval*
0 Thick line with rounded ends*
0 $1 width*
0 $2 $3 position (X,Y) of the first rounded end (center of the circle)*
0 $4 $5 position (X,Y) of the second rounded end (center of the circle)*
0 Add line between two ends*
20,1,$1,$2,$3,$4,$5,0*
0 Add two circle primitives to create the rounded ends*
1,1,$1,$2,$3*
1,1,$1,$4,$5*%
%AMRotRect*
0 Rectangle, with rotation*
0 The origin of the aperture is its center*
0 $1 length*
0 $2 width*
0 $3 Rotation angle, in degrees counterclockwise*
0 Add horizontal line*
21,1,$1,$2,0,0,$3*%
G04 Aperture macros list end*
%TA.AperFunction,ComponentPad*%
%ADD10R,2.000000X2.000000*%
%TD*%
%TA.AperFunction,ComponentPad*%
%ADD11C,2.000000*%
%TD*%
%TA.AperFunction,ComponentPad*%
%ADD12C,13.060000*%
%TD*%
%TA.AperFunction,SMDPad,CuDef*%
%ADD13RotRect,1.200000X0.900000X326.000000*%
%TD*%
%TA.AperFunction,ComponentPad*%
%ADD14RotRect,0.850000X0.850000X230.000000*%
%TD*%
%TA.AperFunction,ComponentPad*%
%ADD15HorizOval,0.850000X0.000000X0.000000X0.000000X0.000000X0*%
%TD*%
%TA.AperFunction,ViaPad*%
%ADD16C,0.800000*%
%TD*%
%TA.AperFunction,Conductor*%
%ADD17C,0.250000*%
%TD*%
G04 APERTURE END LIST*
D10*
%TO.P,D1,1,K*%
%TO.N,GND*%
X155058300Y-95758000D03*
D11*
%TO.P,D1,2,A*%
%TO.N,Net-(D1-Pad2)*%
X155058300Y-98298000D03*
%TD*%
D12*
%TO.P,Pinecil LED Ring,Hole*%
%TO.N,N/C*%
X145975168Y-97042345D03*
%TD*%
D10*
%TO.P,D2,1,K*%
%TO.N,GND*%
X136897600Y-96113600D03*
D11*
%TO.P,D2,2,A*%
%TO.N,Net-(D2-Pad2)*%
X136897600Y-98653600D03*
%TD*%
D13*
%TO.P,R3,1*%
%TO.N,+5V*%
X138298059Y-100664888D03*
%TO.P,R3,2*%
%TO.N,Net-(D4-Pad2)*%
X140121941Y-101895112D03*
%TD*%
D14*
%TO.P,REF\u002A\u002A,1*%
%TO.N,GND*%
X153392623Y-93386994D03*
D15*
%TO.P,REF\u002A\u002A,2*%
%TO.N,+5V*%
X152626579Y-92744206D03*
%TD*%
D16*
%TO.N,GND*%
X148400000Y-104260000D03*
%TO.N,+5V*%
X139040000Y-99540000D03*
%TO.N,Net-(D4-Pad2)*%
X143650000Y-104450000D03*
%TD*%
D17*
%TO.N,GND*%
X153392623Y-93386994D02*
X152809617Y-93970000D01*
X151420000Y-92720000D02*
X151420000Y-92030000D01*
X152670000Y-93970000D02*
X151420000Y-92720000D01*
X152809617Y-93970000D02*
X152670000Y-93970000D01*
%TO.N,+5V*%
X139040000Y-99922947D02*
X138298059Y-100664888D01*
X139040000Y-99540000D02*
X139040000Y-99922947D01*
%TO.N,Net-(D4-Pad2)*%
X143650000Y-104450000D02*
X142300000Y-103100000D01*
X141326829Y-103100000D02*
X140121941Y-101895112D01*
X142300000Y-103100000D02*
X141326829Y-103100000D01*
%TD*%
%TA.AperFunction,Conductor*%
%TO.N,GND*%
G36*
X153596701Y-93226663D02*
G01*
X154256732Y-93780494D01*
X154271284Y-93786863D01*
X154273100Y-93786572D01*
X154279316Y-93781763D01*
X154409250Y-93626915D01*
X154413330Y-93621480D01*
X154441803Y-93578950D01*
X154443915Y-93574737D01*
X154492325Y-93522805D01*
X154561127Y-93505289D01*
X154631630Y-93530016D01*
X155321789Y-94042070D01*
X155364577Y-94098721D01*
X155369945Y-94169514D01*
X155339222Y-94226356D01*
X155339404Y-94226514D01*
X155338693Y-94227335D01*
X155336187Y-94231971D01*
X155333059Y-94233836D01*
X155313971Y-94255865D01*
X155312300Y-94263548D01*
X155312300Y-95886000D01*
X155292298Y-95954121D01*
X155238642Y-96000614D01*
X155186300Y-96012000D01*
X153568416Y-96012000D01*
X153553177Y-96016475D01*
X153551972Y-96017865D01*
X153550301Y-96025548D01*
X153550301Y-96802669D01*
X153550671Y-96809490D01*
X153556195Y-96860352D01*
X153559821Y-96875604D01*
X153604976Y-96996054D01*
X153613514Y-97011649D01*
X153690015Y-97113724D01*
X153702576Y-97126285D01*
X153804653Y-97202787D01*
X153808503Y-97204895D01*
X153811580Y-97207978D01*
X153811838Y-97208172D01*
X153811810Y-97208209D01*
X153858650Y-97255152D01*
X153873665Y-97324543D01*
X153848781Y-97391036D01*
X153843821Y-97397231D01*
X153834124Y-97408584D01*
X153821353Y-97429424D01*
X153726855Y-97583631D01*
X153710060Y-97611037D01*
X153708167Y-97615607D01*
X153708165Y-97615611D01*
X153651320Y-97752848D01*
X153619195Y-97830406D01*
X153563765Y-98061289D01*
X153545135Y-98298000D01*
X153563765Y-98534711D01*
X153619195Y-98765594D01*
X153621088Y-98770165D01*
X153621089Y-98770167D01*
X153690885Y-98938669D01*
X153710060Y-98984963D01*
X153712646Y-98989183D01*
X153831541Y-99183202D01*
X153831545Y-99183208D01*
X153834124Y-99187416D01*
X153988331Y-99367969D01*
X154168884Y-99522176D01*
X154173092Y-99524755D01*
X154173098Y-99524759D01*
X154243756Y-99568058D01*
X154371337Y-99646240D01*
X154375907Y-99648133D01*
X154375911Y-99648135D01*
X154586133Y-99735211D01*
X154590706Y-99737105D01*
X154639803Y-99748892D01*
X154701372Y-99784244D01*
X154734055Y-99847271D01*
X154727475Y-99917962D01*
X154686750Y-99971635D01*
X151531509Y-102375629D01*
X148551377Y-104646206D01*
X148510776Y-104677140D01*
X148489795Y-104690093D01*
X148480220Y-104694778D01*
X148467618Y-104706275D01*
X148448304Y-104720764D01*
X148345752Y-104783303D01*
X148331964Y-104790581D01*
X148197841Y-104851075D01*
X148183250Y-104856596D01*
X148042671Y-104900052D01*
X148027521Y-104903725D01*
X147916430Y-104923471D01*
X147890558Y-104925225D01*
X147889580Y-104925325D01*
X147880610Y-104924961D01*
X147872524Y-104926974D01*
X147861517Y-104927534D01*
X144623517Y-104927534D01*
X144555396Y-104907532D01*
X144508903Y-104853876D01*
X144498799Y-104783602D01*
X144503684Y-104762598D01*
X144541502Y-104646206D01*
X144543542Y-104639928D01*
X144563504Y-104450000D01*
X144543542Y-104260072D01*
X144496954Y-104116689D01*
X144494926Y-104045722D01*
X144531589Y-103984924D01*
X144595301Y-103953598D01*
X144642338Y-103954371D01*
X144798293Y-103986668D01*
X144798303Y-103986670D01*
X144800545Y-103987134D01*
X145312323Y-104054511D01*
X145564166Y-104069032D01*
X145825365Y-104084093D01*
X145825377Y-104084093D01*
X145827662Y-104084225D01*
X145829962Y-104084189D01*
X145829968Y-104084189D01*
X146341460Y-104076154D01*
X146341470Y-104076153D01*
X146343792Y-104076117D01*
X146380735Y-104072820D01*
X146855640Y-104030436D01*
X146855652Y-104030434D01*
X146857943Y-104030230D01*
X147367353Y-103946811D01*
X147869285Y-103826308D01*
X147871483Y-103825606D01*
X147871492Y-103825604D01*
X148358838Y-103670072D01*
X148358845Y-103670069D01*
X148361043Y-103669368D01*
X148482233Y-103620650D01*
X148837846Y-103477695D01*
X148837853Y-103477692D01*
X148839987Y-103476834D01*
X149303544Y-103249740D01*
X149749224Y-102989305D01*
X150174633Y-102696930D01*
X150577487Y-102374183D01*
X150955622Y-102022799D01*
X151307006Y-101644664D01*
X151629753Y-101241810D01*
X151922128Y-100816401D01*
X152182563Y-100370721D01*
X152409657Y-99907164D01*
X152459071Y-99784244D01*
X152601327Y-99430369D01*
X152602191Y-99428220D01*
X152602895Y-99426015D01*
X152758427Y-98938669D01*
X152758429Y-98938660D01*
X152759131Y-98936462D01*
X152879634Y-98434530D01*
X152963053Y-97925120D01*
X152971915Y-97825833D01*
X153008763Y-97412950D01*
X153008940Y-97410969D01*
X153009003Y-97408584D01*
X153011203Y-97324543D01*
X153018593Y-97042345D01*
X152999678Y-96526497D01*
X152943033Y-96013420D01*
X152919417Y-95886000D01*
X152849385Y-95508134D01*
X152849384Y-95508128D01*
X152848965Y-95505869D01*
X152848037Y-95502329D01*
X152718560Y-95008796D01*
X152718558Y-95008789D01*
X152717976Y-95006571D01*
X152714356Y-94995996D01*
X152551520Y-94520391D01*
X152551518Y-94520385D01*
X152550772Y-94518207D01*
X152443049Y-94265655D01*
X152992754Y-94265655D01*
X152993045Y-94267471D01*
X152997854Y-94273687D01*
X153152702Y-94403621D01*
X153158137Y-94407701D01*
X153200666Y-94436173D01*
X153214683Y-94443200D01*
X153335982Y-94486034D01*
X153353401Y-94489515D01*
X153442034Y-94494393D01*
X153508953Y-94518109D01*
X153552427Y-94574238D01*
X153557692Y-94649354D01*
X153556194Y-94655652D01*
X153550669Y-94706514D01*
X153550300Y-94713328D01*
X153550300Y-95485885D01*
X153554775Y-95501124D01*
X153556165Y-95502329D01*
X153563848Y-95504000D01*
X154786185Y-95504000D01*
X154801424Y-95499525D01*
X154802629Y-95498135D01*
X154804300Y-95490452D01*
X154804300Y-94268116D01*
X154799825Y-94252877D01*
X154798435Y-94251672D01*
X154790752Y-94250001D01*
X154055417Y-94250001D01*
X153987296Y-94229999D01*
X153955761Y-94201102D01*
X153933697Y-94172584D01*
X153437808Y-93756482D01*
X153423256Y-93750113D01*
X153421440Y-93750404D01*
X153415224Y-93755213D01*
X152999123Y-94251103D01*
X152992754Y-94265655D01*
X152443049Y-94265655D01*
X152348249Y-94043400D01*
X152347311Y-94041582D01*
X152336410Y-93971463D01*
X152365163Y-93906549D01*
X152424447Y-93867485D01*
X152495438Y-93866674D01*
X152542315Y-93891446D01*
X152584450Y-93926801D01*
X152599001Y-93933169D01*
X152600817Y-93932878D01*
X152607033Y-93928069D01*
X152809286Y-93687034D01*
X152868396Y-93647707D01*
X152879610Y-93644779D01*
X152910171Y-93638283D01*
X152910180Y-93638280D01*
X152916635Y-93636908D01*
X153046811Y-93578950D01*
X153089870Y-93559779D01*
X153089872Y-93559778D01*
X153095900Y-93557094D01*
X153143095Y-93522805D01*
X153249309Y-93445636D01*
X153249311Y-93445634D01*
X153254653Y-93441753D01*
X153385956Y-93295926D01*
X153406591Y-93260185D01*
X153457973Y-93211192D01*
X153527687Y-93197756D01*
X153596701Y-93226663D01*
G37*
%TD.AperFunction*%
%TA.AperFunction,Conductor*%
G36*
X146464492Y-88836519D02*
G01*
X146473302Y-88837052D01*
X146894147Y-88877367D01*
X146959183Y-88883597D01*
X146967931Y-88884746D01*
X147449366Y-88965193D01*
X147457991Y-88966947D01*
X147932618Y-89080901D01*
X147941108Y-89083257D01*
X148109076Y-89136266D01*
X148406572Y-89230154D01*
X148414891Y-89233103D01*
X148868943Y-89412230D01*
X148877035Y-89415755D01*
X149317429Y-89626228D01*
X149325235Y-89630301D01*
X149430957Y-89690258D01*
X149749813Y-89871089D01*
X149757330Y-89875707D01*
X150164026Y-90145638D01*
X150171184Y-90150760D01*
X150557968Y-90448488D01*
X150564746Y-90454093D01*
X150671024Y-90548457D01*
X150899812Y-90751598D01*
X150916061Y-90769042D01*
X150919442Y-90773442D01*
X150919447Y-90773447D01*
X150924914Y-90780561D01*
X150986588Y-90825631D01*
X150987169Y-90826060D01*
X152183741Y-91713839D01*
X152226530Y-91770492D01*
X152231898Y-91841285D01*
X152198140Y-91903742D01*
X152168402Y-91924274D01*
X152169011Y-91925329D01*
X152163288Y-91928633D01*
X152157258Y-91931318D01*
X152151917Y-91935198D01*
X152151916Y-91935199D01*
X152121705Y-91957149D01*
X151998505Y-92046659D01*
X151867202Y-92192486D01*
X151863901Y-92198204D01*
X151787151Y-92331139D01*
X151769087Y-92362426D01*
X151708449Y-92549051D01*
X151707759Y-92555614D01*
X151707759Y-92555615D01*
X151704342Y-92588125D01*
X151677328Y-92653782D01*
X151619107Y-92694411D01*
X151548162Y-92697114D01*
X151482369Y-92655777D01*
X151387882Y-92542772D01*
X151209453Y-92329374D01*
X150850227Y-91958681D01*
X150823872Y-91935199D01*
X150466537Y-91616826D01*
X150466531Y-91616821D01*
X150464816Y-91615293D01*
X150055291Y-91301054D01*
X149684471Y-91057470D01*
X149625780Y-91018917D01*
X149625771Y-91018912D01*
X149623852Y-91017651D01*
X149172816Y-90766607D01*
X149015671Y-90693663D01*
X148706691Y-90550239D01*
X148706684Y-90550236D01*
X148704605Y-90549271D01*
X148702463Y-90548461D01*
X148702452Y-90548457D01*
X148223883Y-90367621D01*
X148223882Y-90367621D01*
X148221734Y-90366809D01*
X148219533Y-90366157D01*
X148219527Y-90366155D01*
X147729023Y-90220861D01*
X147729014Y-90220859D01*
X147726797Y-90220202D01*
X147222451Y-90110237D01*
X146711406Y-90037505D01*
X146196407Y-90002396D01*
X146194090Y-90002408D01*
X146194086Y-90002408D01*
X145908259Y-90003904D01*
X145680220Y-90005098D01*
X145562211Y-90014385D01*
X145167914Y-90045417D01*
X145167908Y-90045418D01*
X145165617Y-90045598D01*
X144655362Y-90123678D01*
X144653122Y-90124191D01*
X144653117Y-90124192D01*
X144154437Y-90238405D01*
X144154424Y-90238409D01*
X144152195Y-90238919D01*
X143946471Y-90302208D01*
X143661023Y-90390023D01*
X143661016Y-90390025D01*
X143658820Y-90390701D01*
X143177887Y-90578209D01*
X142898352Y-90711540D01*
X142742547Y-90785856D01*
X142711977Y-90800437D01*
X142263594Y-91056190D01*
X141835147Y-91344094D01*
X141428935Y-91662605D01*
X141427246Y-91664142D01*
X141427234Y-91664152D01*
X141140205Y-91925329D01*
X141047142Y-92010010D01*
X141007703Y-92051570D01*
X140744077Y-92329374D01*
X140691817Y-92384444D01*
X140364869Y-92783896D01*
X140068055Y-93206221D01*
X140066864Y-93208211D01*
X139819528Y-93621480D01*
X139802968Y-93649149D01*
X139801935Y-93651203D01*
X139619920Y-94013100D01*
X139571032Y-94110302D01*
X139570148Y-94112437D01*
X139570144Y-94112445D01*
X139374370Y-94585086D01*
X139373493Y-94587204D01*
X139372774Y-94589378D01*
X139228989Y-95024142D01*
X139211411Y-95077292D01*
X139085659Y-95577935D01*
X139085265Y-95580193D01*
X139085263Y-95580202D01*
X139031893Y-95886000D01*
X138996910Y-96086443D01*
X138945642Y-96600085D01*
X138945582Y-96602385D01*
X138938865Y-96858895D01*
X138932129Y-97116102D01*
X138956445Y-97631724D01*
X138956723Y-97634024D01*
X138956724Y-97634032D01*
X139004077Y-98025329D01*
X139018459Y-98144179D01*
X139018903Y-98146442D01*
X139084588Y-98481242D01*
X139078075Y-98551939D01*
X139034374Y-98607893D01*
X138960945Y-98631500D01*
X138944513Y-98631500D01*
X138938061Y-98632872D01*
X138938056Y-98632872D01*
X138851112Y-98651353D01*
X138757712Y-98671206D01*
X138751685Y-98673889D01*
X138751677Y-98673892D01*
X138586721Y-98747335D01*
X138516354Y-98756769D01*
X138452057Y-98726662D01*
X138414244Y-98666573D01*
X138409861Y-98642114D01*
X138392523Y-98421823D01*
X138392135Y-98416889D01*
X138336705Y-98186006D01*
X138285046Y-98061289D01*
X138247735Y-97971211D01*
X138247733Y-97971207D01*
X138245840Y-97966637D01*
X138165306Y-97835218D01*
X138124359Y-97768398D01*
X138124355Y-97768392D01*
X138121776Y-97764184D01*
X138112094Y-97752848D01*
X138083062Y-97688059D01*
X138093666Y-97617858D01*
X138140540Y-97564535D01*
X138147397Y-97560495D01*
X138151247Y-97558387D01*
X138253324Y-97481885D01*
X138265885Y-97469324D01*
X138342386Y-97367249D01*
X138350924Y-97351654D01*
X138396078Y-97231206D01*
X138399705Y-97215951D01*
X138405231Y-97165086D01*
X138405600Y-97158272D01*
X138405600Y-96385715D01*
X138401125Y-96370476D01*
X138399735Y-96369271D01*
X138392052Y-96367600D01*
X136769600Y-96367600D01*
X136701479Y-96347598D01*
X136654986Y-96293942D01*
X136643600Y-96241600D01*
X136643600Y-95841485D01*
X137151600Y-95841485D01*
X137156075Y-95856724D01*
X137157465Y-95857929D01*
X137165148Y-95859600D01*
X138387484Y-95859600D01*
X138402723Y-95855125D01*
X138403928Y-95853735D01*
X138405599Y-95846052D01*
X138405599Y-95068931D01*
X138405229Y-95062110D01*
X138399705Y-95011248D01*
X138396079Y-94995996D01*
X138350924Y-94875546D01*
X138342386Y-94859951D01*
X138265885Y-94757876D01*
X138253324Y-94745315D01*
X138151249Y-94668814D01*
X138135654Y-94660276D01*
X138015206Y-94615122D01*
X137999951Y-94611495D01*
X137949086Y-94605969D01*
X137942272Y-94605600D01*
X137169715Y-94605600D01*
X137154476Y-94610075D01*
X137153271Y-94611465D01*
X137151600Y-94619148D01*
X137151600Y-95841485D01*
X136643600Y-95841485D01*
X136643600Y-94623716D01*
X136639125Y-94608477D01*
X136637735Y-94607272D01*
X136630052Y-94605601D01*
X136627527Y-94605601D01*
X136620309Y-94603482D01*
X136616817Y-94602722D01*
X136616871Y-94602472D01*
X136559406Y-94585599D01*
X136512913Y-94531943D01*
X136502809Y-94461669D01*
X136532303Y-94397089D01*
X136550170Y-94380143D01*
X138769776Y-92653782D01*
X140994431Y-90923495D01*
X140997965Y-90920845D01*
X141041614Y-90889298D01*
X141041618Y-90889294D01*
X141048889Y-90884039D01*
X141062686Y-90866278D01*
X141076737Y-90850983D01*
X141103677Y-90826123D01*
X141411635Y-90541935D01*
X141418327Y-90536180D01*
X141799337Y-90231078D01*
X141806416Y-90225805D01*
X141813564Y-90220861D01*
X142207828Y-89948141D01*
X142215256Y-89943378D01*
X142635136Y-89694490D01*
X142642882Y-89690258D01*
X142865386Y-89578625D01*
X143079157Y-89471373D01*
X143087168Y-89467700D01*
X143378771Y-89346144D01*
X143537686Y-89279900D01*
X143545947Y-89276791D01*
X144008521Y-89120986D01*
X144016979Y-89118464D01*
X144136618Y-89087300D01*
X144489308Y-88995430D01*
X144497900Y-88993509D01*
X144737814Y-88948673D01*
X144977717Y-88903838D01*
X144986444Y-88902522D01*
X145159337Y-88882605D01*
X145471330Y-88846665D01*
X145480102Y-88845964D01*
X145723928Y-88835076D01*
X145967743Y-88824188D01*
X145976569Y-88824104D01*
X146464492Y-88836519D01*
G37*
%TD.AperFunction*%
%TD*%
M02*
